<svg xmlns="http://www.w3.org/2000/svg" fill="none">
    <symbol id="logo-white" viewBox="0 0 92 44">
        <path
            d="M77.228 41.5627L78.0816 41.0657C78.3231 41.6231 78.639 41.9193 79.2776 41.9193C79.7416 41.9193 80.0972 41.7306 80.0972 41.3949C80.0972 40.346 77.4827 41.0855 77.4827 39.1906C77.4827 38.2965 78.2023 37.7051 79.204 37.7051C80.1575 37.7051 80.6348 38.1767 80.9177 38.7332L80.0972 39.217C79.8755 38.7134 79.5596 38.5313 79.154 38.5313C78.8041 38.5313 78.5287 38.72 78.5287 39.0557C78.5287 39.9904 81.1498 39.2708 81.1498 41.2062C81.1498 42.1739 80.2556 42.7455 79.2474 42.7455C78.2967 42.7455 77.577 42.4229 77.228 41.5627Z"
            fill="white" />
        <path
            d="M81.9187 41.3948V40.0508H81.4414V39.184H81.9526V38.6058L82.9901 38.021V39.184H84.0654V40.0508H82.9901V41.4486C82.9901 41.7645 83.192 41.9202 83.4136 41.9202C83.6367 41.9231 83.8536 41.8469 84.0258 41.7051L84.1597 42.4908C83.8645 42.686 83.5551 42.7464 83.1656 42.7464C82.4704 42.7455 81.9187 42.2814 81.9187 41.3948Z"
            fill="white" />
        <path
            d="M88.0276 42.5645C87.853 42.6377 87.666 42.6765 87.4767 42.6787C87.1278 42.6787 86.8656 42.5438 86.7222 42.3089C86.5868 42.4536 86.4219 42.5674 86.2386 42.6427C86.0554 42.7181 85.8581 42.7532 85.6602 42.7456C84.9678 42.7456 84.5283 42.4033 84.5283 41.7845C84.5283 40.4744 86.5449 40.8904 86.5449 40.3329C86.5449 40.0981 86.3562 39.9698 86.0403 39.9698C85.7045 39.9698 85.4743 40.1047 85.3555 40.3999L84.5623 40.0377C84.8377 39.4322 85.3621 39.1162 86.0714 39.1162C87.0929 39.1162 87.6041 39.6208 87.6041 40.5678V41.6704C87.6013 41.6928 87.6035 41.7156 87.6104 41.7371C87.6173 41.7587 87.6289 41.7784 87.6442 41.795C87.6596 41.8116 87.6784 41.8247 87.6993 41.8333C87.7202 41.8419 87.7428 41.8459 87.7654 41.8449C87.8143 41.8467 87.8629 41.8353 87.9059 41.8119L88.0276 42.5645ZM86.5496 41.3742V41.146C86.1261 41.3214 85.6064 41.3007 85.6064 41.6902C85.6064 41.8854 85.7413 41.993 85.9629 41.993C86.0427 41.9931 86.1217 41.9769 86.1951 41.9454C86.2684 41.914 86.3346 41.8679 86.3895 41.81C86.4444 41.752 86.487 41.6835 86.5145 41.6086C86.542 41.5337 86.5539 41.4539 86.5496 41.3742Z"
            fill="white" />
        <path
            d="M91.8919 42.6785H90.6158L89.9904 41.5759L89.3048 42.6785H88.2031L89.4189 40.8865L88.2569 39.1887H89.5094L90.0942 40.264L90.7261 39.1887H91.7947L90.6724 40.9157L91.8919 42.6785Z"
            fill="white" />
        <path fill-rule="evenodd" clip-rule="evenodd"
            d="M71.2012 40.695L71.1153 40.6318L69.9279 41.5326C69.8166 41.6835 69.8637 41.8259 70.0071 41.9306L72.6311 43.8585C72.8989 44.0566 73.3687 44.0358 73.6422 43.8349L74.5514 43.1568L71.2012 40.6922"
            fill="white" />
        <path fill-rule="evenodd" clip-rule="evenodd"
            d="M75.1001 42.7503L76.313 41.8467C76.4234 41.6949 76.3762 41.5524 76.2338 41.4477L75.6085 40.9875L71.1396 37.7004L69.9276 38.604C69.8163 38.7559 69.8644 38.8983 70.0068 39.003L75.1001 42.7503Z"
            fill="white" />
        <path fill-rule="evenodd" clip-rule="evenodd"
            d="M75.1255 39.8187L76.313 38.9179C76.4234 38.767 76.3762 38.6246 76.2338 38.5199L73.6098 36.5892C73.341 36.3911 72.8713 36.4119 72.5987 36.6128L71.6895 37.2909C72.9854 38.2436 73.8013 38.8434 75.1255 39.8187Z"
            fill="white" />
        <path fill-rule="evenodd" clip-rule="evenodd"
            d="M9.57555 36.0696L1.07077 35.9131C0.0662634 35.5858 -0.183683 34.7812 0.127571 33.8324L1.47728 29.6823C5.3142 17.8641 7.58258 10.8882 11.1224 0L19.6272 0.157513C20.6317 0.484802 20.8816 1.28935 20.5704 2.2382C16.2468 15.5372 13.4549 24.1203 9.57178 36.0696"
            fill="white" />
        <path
            d="M10.9326 25.1032V12.3955H15.7278V25.372C15.7278 28.3091 17.5557 30.3766 20.1929 30.3766C22.8301 30.3766 24.6589 28.4289 24.6589 25.372V12.3955H29.4541V25.1032C29.4541 30.7076 25.8275 34.5738 20.1929 34.5738C14.6196 34.5738 10.9326 30.7378 10.9326 25.1032Z"
            fill="white" />
        <path
            d="M32.5708 29.2984L36.3766 27.081C37.4556 29.5682 38.8647 30.8877 41.7113 30.8877C43.7797 30.8877 45.3681 30.0482 45.3681 28.5495C45.3681 23.8741 33.7092 27.1706 33.7092 18.7195C33.7092 14.7336 36.9161 12.0964 41.3821 12.0964C45.6378 12.0964 47.7657 14.1941 49.022 16.6813L45.3681 18.8393C44.3786 16.5917 42.9705 15.7824 41.1425 15.7824C39.5834 15.7824 38.3554 16.6219 38.3554 18.1197C38.3554 22.2858 50.0435 19.0789 50.0435 27.7101C50.0435 32.0261 46.0575 34.5737 41.5613 34.5737C37.3358 34.5737 34.129 33.1353 32.5708 29.2984Z"
            fill="white" />
        <path
            d="M52.1411 29.2984L55.9469 27.081C57.0259 29.5682 58.4351 30.8877 61.2816 30.8877C63.3501 30.8877 64.9384 30.0482 64.9384 28.5495C64.9384 23.8741 53.2796 27.1706 53.2796 18.7195C53.2796 14.7336 56.4864 12.0964 60.9525 12.0964C65.2082 12.0964 67.336 14.1941 68.5924 16.6813L64.9365 18.8393C63.9471 16.5917 62.5389 15.7824 60.711 15.7824C59.1519 15.7824 57.9239 16.6219 57.9239 18.1197C57.9239 22.2858 69.6119 19.0789 69.6119 27.7101C69.6119 32.0261 65.626 34.5737 61.1298 34.5737C56.9061 34.5737 53.6993 33.1353 52.1411 29.2984Z"
            fill="white" />
        <path
            d="M91.791 23.3346C91.791 29.6285 86.9958 34.2757 80.5529 34.2757H73.0903V12.3936H80.5491C87.026 12.3954 91.791 17.2208 91.791 23.3346ZM80.5491 30.4378C83.8758 30.4378 86.7223 28.0704 86.7223 23.3346C86.7223 18.5102 83.8758 16.2324 80.5491 16.2324H77.795V30.4378H80.5491Z"
            fill="white" />
        <path
            d="M64.2461 40.7291C64.2461 41.3111 63.6971 41.6836 62.9332 41.6836H61.4731V38.1995H63.0143C63.8018 38.1995 64.1744 38.5767 64.1744 39.1257C64.1681 39.2787 64.1185 39.4268 64.0314 39.5527C63.9442 39.6786 63.8231 39.7771 63.6821 39.8368C64.0122 39.9698 64.2461 40.2745 64.2461 40.7291ZM62.1569 38.7965V39.6265H62.8832C63.2312 39.6265 63.4415 39.4643 63.4415 39.2068C63.4415 38.9493 63.2454 38.7965 62.9879 38.7965H62.1569ZM62.9351 41.0866C63.2888 41.0866 63.5076 40.9196 63.5076 40.6338C63.5076 40.3481 63.2689 40.1802 62.9209 40.1802H62.1569V41.0866H62.9351Z"
            fill="white" />
        <path
            d="M66.3598 39.2019H67.1426L66.1683 41.7023C65.8439 42.5418 65.5392 42.7238 65.0365 42.7238C64.8608 42.7235 64.6881 42.6773 64.5357 42.5899L64.7121 41.9834C64.8037 42.0636 64.9196 42.1108 65.0412 42.1173C65.2186 42.1173 65.4044 41.989 65.5279 41.6212V41.607L64.4546 39.2019H65.328L65.8722 40.6667L66.3598 39.2019Z"
            fill="white" />
    </symbol>
    <symbol id="logo-coloured" viewBox="0 0 92 44">
        <path
            d="M77.2476 41.5627L78.0964 41.0657C78.3388 41.6231 78.6539 41.9193 79.2924 41.9193C79.7565 41.9193 80.113 41.7306 80.113 41.3949C80.113 40.346 77.4984 41.0855 77.4984 39.1906C77.4984 38.2965 78.2172 37.7051 79.2188 37.7051C80.1734 37.7051 80.6506 38.1767 80.9326 38.7332L80.113 39.217C79.8913 38.7134 79.5754 38.5313 79.1698 38.5313C78.8199 38.5313 78.5445 38.72 78.5445 39.0557C78.5445 39.9904 81.1656 39.2708 81.1656 41.2062C81.1656 42.1739 80.2724 42.7455 79.2641 42.7455C78.3124 42.7455 77.5937 42.4229 77.2476 41.5627Z"
            fill="#004D9C" />
        <path
            d="M81.9353 41.3948V40.0508H81.458V39.184H81.9683V38.6058L83.0058 38.021V39.184H84.081V40.0508H83.0011V41.4486C83.0011 41.7645 83.202 41.9202 83.4246 41.9202C83.6473 41.9229 83.8638 41.8467 84.0358 41.7051L84.1706 42.4908C83.8745 42.686 83.5651 42.7464 83.1756 42.7464C82.4861 42.7455 81.9353 42.2814 81.9353 41.3948Z"
            fill="#004D9C" />
        <path
            d="M88.0444 42.5645C87.8695 42.6377 87.6822 42.6765 87.4926 42.6786C87.1437 42.6786 86.8815 42.5438 86.7381 42.3089C86.6029 42.4536 86.4382 42.5674 86.2551 42.6428C86.072 42.7181 85.8748 42.7532 85.677 42.7456C84.9847 42.7456 84.5452 42.4032 84.5452 41.7845C84.5452 40.4744 86.5617 40.8904 86.5617 40.3329C86.5617 40.0981 86.3731 39.9698 86.058 39.9698C85.7213 39.9698 85.4865 40.1047 85.3723 40.3999L84.5791 40.0377C84.8545 39.4322 85.3789 39.1162 86.0882 39.1162C87.1097 39.1162 87.6209 39.6208 87.6209 40.5678V41.6704C87.6182 41.6928 87.6203 41.7156 87.6273 41.7371C87.6342 41.7587 87.6457 41.7784 87.6611 41.795C87.6764 41.8116 87.6952 41.8247 87.7162 41.8333C87.7371 41.8419 87.7596 41.8459 87.7822 41.8449C87.8314 41.8464 87.8802 41.835 87.9237 41.8119L88.0444 42.5645ZM86.5655 41.3742V41.146C86.142 41.3214 85.6223 41.3006 85.6223 41.6902C85.6223 41.8854 85.7572 41.9929 85.9788 41.9929C86.0586 41.9931 86.1376 41.9769 86.211 41.9454C86.2843 41.914 86.3505 41.8679 86.4054 41.8099C86.4603 41.752 86.5029 41.6835 86.5304 41.6086C86.5579 41.5337 86.5698 41.4539 86.5655 41.3742Z"
            fill="#004D9C" />
        <path
            d="M91.9085 42.6785H90.6314L90.0061 41.5759L89.3204 42.6785H88.2188L89.4354 40.8865L88.2725 39.1887H89.5288L90.1136 40.264L90.7455 39.1887H91.8142L90.6918 40.9157L91.9085 42.6785Z"
            fill="#004D9C" />
        <path fill-rule="evenodd" clip-rule="evenodd"
            d="M71.2169 40.695L71.131 40.6318L69.9445 41.5326C69.8332 41.6835 69.8804 41.8259 70.0228 41.9306L72.6467 43.8585C72.9155 44.0566 73.3852 44.0358 73.6578 43.8349L74.5671 43.1568L71.2169 40.6922"
            fill="#004D9C" />
        <path fill-rule="evenodd" clip-rule="evenodd"
            d="M75.1169 42.7503L76.3289 41.8467C76.4402 41.6949 76.3931 41.5524 76.2507 41.4477L75.6244 40.9875L71.1565 37.7004L69.9436 38.604C69.8332 38.7559 69.8804 38.8983 70.0228 39.003L75.116 42.7503"
            fill="#004D9C" />
        <path fill-rule="evenodd" clip-rule="evenodd"
            d="M75.1414 39.8187L76.3289 38.9179C76.4402 38.767 76.393 38.6246 76.2506 38.5199L73.6257 36.5892C73.3578 36.3911 72.8881 36.4119 72.6146 36.6128L71.7053 37.2909C73.0013 38.2436 73.8171 38.8434 75.1414 39.8187Z"
            fill="#004D9C" />
        <path fill-rule="evenodd" clip-rule="evenodd"
            d="M9.5753 36.0696L1.07052 35.9131C0.0660193 35.5858 -0.183927 34.7812 0.127327 33.8324L1.47704 29.6823C5.31395 17.8641 7.58234 10.8882 11.1221 0L19.6269 0.157513C20.6314 0.484802 20.8814 1.28935 20.5701 2.2382C16.2465 15.5372 13.4547 24.1203 9.57153 36.0696"
            fill="#004D9C" />
        <path
            d="M10.9326 25.1032V12.3955H15.7278V25.372C15.7278 28.3091 17.5557 30.3766 20.1929 30.3766C22.8301 30.3766 24.6589 28.4289 24.6589 25.372V12.3955H29.4541V25.1032C29.4541 30.7076 25.8275 34.5738 20.1929 34.5738C14.6196 34.5738 10.9326 30.7378 10.9326 25.1032Z"
            fill="black" />
        <path
            d="M32.5703 29.2984L36.3761 27.081C37.4551 29.5682 38.8643 30.8877 41.7108 30.8877C43.7793 30.8877 45.3676 30.0482 45.3676 28.5495C45.3676 23.8741 33.7097 27.1706 33.7097 18.7195C33.7097 14.7336 36.9166 12.0964 41.3816 12.0964C45.6373 12.0964 47.7652 14.1941 49.0215 16.6813L45.3676 18.8393C44.3782 16.5917 42.97 15.7824 41.1421 15.7824C39.583 15.7824 38.3549 16.6219 38.3549 18.1197C38.3549 22.2858 50.043 19.0789 50.043 27.7101C50.043 32.0261 46.0571 34.5737 41.5618 34.5737C37.3353 34.5737 34.1285 33.1353 32.5703 29.2984Z"
            fill="black" />
        <path
            d="M52.1406 29.2984L55.9464 27.081C57.0254 29.5682 58.4346 30.8877 61.2811 30.8877C63.3495 30.8877 64.9379 30.0482 64.9379 28.5495C64.9379 23.8741 53.28 27.1706 53.28 18.7195C53.28 14.7336 56.4869 12.0964 60.9519 12.0964C65.2076 12.0964 67.3355 14.1941 68.5918 16.6813L64.936 18.8393C63.9466 16.5917 62.5384 15.7824 60.7105 15.7824C59.1514 15.7824 57.9233 16.6219 57.9233 18.1197C57.9233 22.2858 69.6114 19.0789 69.6114 27.7101C69.6114 32.0261 65.6255 34.5737 61.1302 34.5737C56.9056 34.5737 53.6988 33.1353 52.1406 29.2984Z"
            fill="black" />
        <path
            d="M91.7906 23.3346C91.7906 29.6285 86.9954 34.2757 80.5524 34.2757H73.0898V12.3936H80.5486C87.0255 12.3954 91.7906 17.2208 91.7906 23.3346ZM80.5486 30.4378C83.8753 30.4378 86.7218 28.0704 86.7218 23.3346C86.7218 18.5102 83.8753 16.2324 80.5486 16.2324H77.7945V30.4378H80.5486Z"
            fill="black" />
        <path
            d="M64.2618 40.7291C64.2618 41.3111 63.7128 41.6836 62.9498 41.6836H61.4888V38.1995H63.0309C63.8175 38.1995 64.1901 38.5767 64.1901 39.1257C64.184 39.2786 64.1346 39.4267 64.0476 39.5526C63.9606 39.6785 63.8396 39.7771 63.6987 39.8368C64.0278 39.9698 64.2618 40.2745 64.2618 40.7291ZM62.1764 38.7965V39.6265H62.9017C63.2497 39.6265 63.46 39.4643 63.46 39.2068C63.46 38.9493 63.2639 38.7965 63.0064 38.7965H62.1764ZM62.9545 41.0866C63.3073 41.0866 63.527 40.9196 63.527 40.6338C63.527 40.3481 63.2884 40.1802 62.9394 40.1802H62.1764V41.0866H62.9545Z"
            fill="black" />
        <path
            d="M66.3753 39.2019H67.1553L66.182 41.7023C65.8603 42.538 65.5519 42.7266 65.0492 42.7266C64.8731 42.7264 64.7002 42.6803 64.5474 42.5927L64.7247 41.9862C64.8162 42.0667 64.9322 42.1139 65.0539 42.1201C65.2303 42.1201 65.4161 41.9919 65.5406 41.624V41.6099L64.4663 39.2047H65.3397L65.8839 40.6695L66.3753 39.2019Z"
            fill="black" />
    </symbol>

    <symbol id="medium" viewBox="0 0 24 24">
        <path
            d="M13.5375 12C13.5375 15.7275 10.5075 18.75 6.768 18.75C5.8804 18.7512 5.00125 18.5775 4.18076 18.239C3.36026 17.9004 2.61449 17.4035 1.98603 16.7767C1.35756 16.1499 0.858704 15.4055 0.517941 14.5859C0.177178 13.7663 0.00118111 12.8876 0 12C0 8.27101 3.03 5.25001 6.768 5.25001C7.65573 5.24863 8.53504 5.42214 9.3557 5.76063C10.1764 6.09912 10.9223 6.59596 11.5509 7.22278C12.1796 7.84959 12.6786 8.5941 13.0194 9.41379C13.3603 10.2335 13.5363 11.1123 13.5375 12ZM20.9625 12C20.9625 15.51 19.4475 18.354 17.5785 18.354C15.7095 18.354 14.1945 15.5085 14.1945 12C14.1945 8.49001 15.7095 5.64601 17.5785 5.64601C19.4475 5.64601 20.9625 8.49151 20.9625 12ZM24 12C24 15.144 23.4675 17.6925 22.809 17.6925C22.152 17.6925 21.6195 15.1425 21.6195 12C21.6195 8.85601 22.152 6.30751 22.8105 6.30751C23.4675 6.30751 24 8.85601 24 12Z"
            fill="currentColor" />
    </symbol>

    <symbol id="instagram" viewBox="0 0 24 24">
        <path
            d="M11.9977 8.99869C10.3451 8.99869 8.99647 10.3474 8.99647 12C8.99647 13.6526 10.3451 15.0012 11.9977 15.0012C13.6504 15.0012 14.999 13.6526 14.999 12C14.999 10.3474 13.6504 8.99869 11.9977 8.99869ZM20.9993 12C20.9993 10.7571 21.0106 9.52555 20.9408 8.28496C20.871 6.84399 20.5423 5.56512 19.4886 4.51141C18.4326 3.45545 17.156 3.12898 15.715 3.05918C14.4722 2.98938 13.2406 3.00064 12 3.00064C10.7572 3.00064 9.52558 2.98938 8.28499 3.05918C6.84402 3.12898 5.56515 3.4577 4.51144 4.51141C3.45548 5.56737 3.12901 6.84399 3.05921 8.28496C2.98941 9.5278 3.00067 10.7594 3.00067 12C3.00067 13.2406 2.98941 14.4744 3.05921 15.715C3.12901 17.156 3.45773 18.4348 4.51144 19.4885C5.5674 20.5445 6.84402 20.871 8.28499 20.9408C9.52783 21.0106 10.7594 20.9993 12 20.9993C13.2428 20.9993 14.4744 21.0106 15.715 20.9408C17.156 20.871 18.4349 20.5422 19.4886 19.4885C20.5445 18.4326 20.871 17.156 20.9408 15.715C21.0128 14.4744 20.9993 13.2428 20.9993 12ZM11.9977 16.6178C9.44227 16.6178 7.37988 14.5554 7.37988 12C7.37988 9.44449 9.44227 7.3821 11.9977 7.3821C14.5532 7.3821 16.6156 9.44449 16.6156 12C16.6156 14.5554 14.5532 16.6178 11.9977 16.6178ZM16.8047 8.27145C16.2081 8.27145 15.7263 7.78962 15.7263 7.19297C15.7263 6.59632 16.2081 6.11449 16.8047 6.11449C17.4014 6.11449 17.8832 6.59632 17.8832 7.19297C17.8834 7.33465 17.8556 7.47497 17.8015 7.6059C17.7474 7.73682 17.6679 7.85579 17.5677 7.95597C17.4676 8.05615 17.3486 8.13558 17.2177 8.18972C17.0867 8.24385 16.9464 8.27163 16.8047 8.27145Z"
            fill="currentColor" />
    </symbol>

    <symbol id="twitter" viewBox="0 0 24 24">
        <path
            d="M19.633 7.99701C19.646 8.17201 19.646 8.34601 19.646 8.52001C19.646 13.845 15.593 19.981 8.186 19.981C5.904 19.981 3.784 19.32 2 18.172C2.324 18.209 2.636 18.222 2.973 18.222C4.78599 18.2264 6.54765 17.6202 7.974 16.501C7.13342 16.4858 6.31858 16.2085 5.64324 15.7077C4.9679 15.207 4.46578 14.5079 4.207 13.708C4.456 13.745 4.706 13.77 4.968 13.77C5.329 13.77 5.692 13.72 6.029 13.633C5.11676 13.4488 4.29647 12.9544 3.70762 12.2337C3.11876 11.513 2.79769 10.6107 2.799 9.68001V9.63001C3.336 9.92901 3.959 10.116 4.619 10.141C4.06609 9.7736 3.61272 9.27504 3.29934 8.6898C2.98596 8.10457 2.82231 7.45087 2.823 6.78701C2.823 6.03901 3.022 5.35301 3.371 4.75501C4.38314 6.00003 5.6455 7.01857 7.07634 7.74467C8.50717 8.47077 10.0746 8.88823 11.677 8.97001C11.615 8.67001 11.577 8.35901 11.577 8.04701C11.5767 7.51797 11.6807 6.99407 11.8831 6.50525C12.0854 6.01643 12.3821 5.57229 12.7562 5.1982C13.1303 4.82411 13.5744 4.52742 14.0632 4.32509C14.5521 4.12276 15.076 4.01875 15.605 4.01901C16.765 4.01901 17.812 4.50501 18.548 5.29101C19.4498 5.11663 20.3145 4.78743 21.104 4.31801C20.8034 5.24883 20.1738 6.03812 19.333 6.53801C20.1328 6.44679 20.9144 6.23647 21.652 5.91401C21.1011 6.71711 20.4185 7.42136 19.633 7.99701Z"
            fill="currentColor" />
    </symbol>

    <symbol id="facebook" viewBox="0 0 24 24">
        <path
            d="M3.4679 2.39999H20.5439C21.1319 2.39999 21.5999 2.86799 21.5999 3.45599V20.544C21.5999 21.12 21.1319 21.6 20.5439 21.6H15.6479V14.16H18.1439L18.5159 11.268H15.6479V9.41999C15.6479 8.57999 15.8879 8.00399 17.0879 8.00399H18.6239V5.41199C18.3599 5.37599 17.4479 5.30399 16.3919 5.30399C14.1719 5.30399 12.6599 6.64799 12.6599 9.13199V11.268H10.1519V14.16H12.6599V21.6H3.4679C3.18672 21.6 2.91687 21.4891 2.71692 21.2914C2.51698 21.0937 2.40306 20.8252 2.3999 20.544V3.45599C2.3999 2.86799 2.8799 2.39999 3.4679 2.39999Z"
            fill="currentColor" />
    </symbol>

    <symbol id="youtube" viewBox="0 0 24 24">
        <path
            d="M21.5928 7.20301C21.4789 6.78041 21.2563 6.39501 20.9472 6.08518C20.6381 5.77534 20.2532 5.55187 19.8308 5.43701C18.2648 5.00701 11.9998 5.00001 11.9998 5.00001C11.9998 5.00001 5.73584 4.99301 4.16884 5.40401C3.74677 5.52415 3.36266 5.75078 3.05341 6.06214C2.74415 6.3735 2.52013 6.75913 2.40284 7.18201C1.98984 8.74801 1.98584 11.996 1.98584 11.996C1.98584 11.996 1.98184 15.26 2.39184 16.81C2.62184 17.667 3.29684 18.344 4.15484 18.575C5.73684 19.005 11.9848 19.012 11.9848 19.012C11.9848 19.012 18.2498 19.019 19.8158 18.609C20.2383 18.4943 20.6236 18.2714 20.9335 17.9622C21.2434 17.653 21.4672 17.2682 21.5828 16.846C21.9968 15.281 21.9998 12.034 21.9998 12.034C21.9998 12.034 22.0198 8.76901 21.5928 7.20301ZM9.99584 15.005L10.0008 9.00501L15.2078 12.01L9.99584 15.005Z"
            fill="currentColor" />
    </symbol>
    <symbol id="google-play" viewBox="0 0 150 48">
        <rect width="150" height="48" rx="6.85714" fill="black" />
        <path
            d="M15.834 11.3599C15.5299 11.6721 15.4286 12.1926 15.4286 12.8172V35.8218C15.4286 36.4464 15.6313 36.9669 15.9353 37.2791L16.0367 37.3832L28.6036 24.4756V24.2675L15.834 11.3599Z"
            fill="url(#paint0_linear_440_1344)" />
        <path
            d="M32.6577 28.8475L28.5025 24.5796V24.2673L32.6577 19.9995L32.7591 20.1036L37.725 23.0182C39.1439 23.851 39.1439 25.2042 37.725 26.0369L32.6577 28.8475Z"
            fill="url(#paint1_linear_440_1344)" />
        <path
            d="M32.7589 28.7435L28.5024 24.3716L15.8341 37.3833C16.3409 37.9037 17.0503 37.9037 17.9624 37.4874L32.7589 28.7435Z"
            fill="url(#paint2_linear_440_1344)" />
        <path
            d="M32.7589 19.9995L17.9624 11.3598C17.0503 10.8393 16.3409 10.9434 15.8341 11.4639L28.5024 24.3714L32.7589 19.9995Z"
            fill="url(#paint3_linear_440_1344)" />
        <path opacity="0.2"
            d="M32.6576 28.6392L17.9624 37.1748C17.1516 37.6953 16.4422 37.5912 15.9355 37.1748L15.8341 37.2789L15.9355 37.383C16.4422 37.7994 17.1516 37.9035 17.9624 37.383L32.6576 28.6392Z"
            fill="black" />
        <path opacity="0.12"
            d="M15.834 37.1751C15.5299 36.8628 15.4286 36.3423 15.4286 35.7178V35.8219C15.4286 36.4464 15.6313 36.9669 15.9353 37.2792V37.1751H15.834ZM37.7247 25.7248L32.6574 28.6394L32.7588 28.7435L37.7247 25.8289C38.4342 25.4125 38.7382 24.892 38.7382 24.3716C38.7382 24.892 38.3328 25.3084 37.7247 25.7248Z"
            fill="black" />
        <path opacity="0.25"
            d="M17.9622 11.464L37.7247 23.0184C38.3328 23.4348 38.7382 23.8511 38.7382 24.3716C38.7382 23.8511 38.4342 23.3307 37.7247 22.9143L17.9622 11.3599C16.5434 10.5272 15.4286 11.1517 15.4286 12.8172V12.9213C15.4286 11.3599 16.5434 10.6313 17.9622 11.464Z"
            fill="white" />
        <path
            d="M55.4599 13.7207C55.4599 14.5535 55.2572 15.2821 54.7505 15.8026C54.1424 16.4272 53.433 16.7394 52.5208 16.7394C51.6087 16.7394 50.8993 16.4272 50.2912 15.8026C49.6832 15.178 49.3791 14.4494 49.3791 13.5125C49.3791 12.5757 49.6832 11.847 50.2912 11.2225C50.8993 10.5979 51.6087 10.2856 52.5208 10.2856C52.9262 10.2856 53.3316 10.3897 53.737 10.5979C54.1424 10.8061 54.4464 11.0143 54.6491 11.3266L54.1424 11.847C53.737 11.3266 53.2303 11.1184 52.5208 11.1184C51.9128 11.1184 51.3047 11.3266 50.8993 11.847C50.3926 12.2634 50.1899 12.888 50.1899 13.6166C50.1899 14.3453 50.3926 14.9698 50.8993 15.3862C51.406 15.8026 51.9128 16.1149 52.5208 16.1149C53.2303 16.1149 53.737 15.9067 54.2437 15.3862C54.5478 15.0739 54.7505 14.6576 54.7505 14.1371H52.5208V13.3044H55.4599V13.7207ZM60.1218 11.1184H57.3855V13.0962H59.9191V13.8248H57.3855V15.8026H60.1218V16.6353H56.5747V10.3897H60.1218V11.1184ZM63.4662 16.6353H62.6555V11.1184H60.9326V10.3897H65.1891V11.1184H63.4662V16.6353ZM68.1282 16.6353V10.3897H68.9389V16.6353H68.1282ZM72.3847 16.6353H71.5739V11.1184H69.851V10.3897H74.0062V11.1184H72.2833V16.6353H72.3847ZM82.0126 15.8026C81.4045 16.4272 80.6951 16.7394 79.783 16.7394C78.8708 16.7394 78.1614 16.4272 77.5533 15.8026C76.9453 15.178 76.6412 14.4494 76.6412 13.5125C76.6412 12.5757 76.9453 11.847 77.5533 11.2225C78.1614 10.5979 78.8708 10.2856 79.783 10.2856C80.6951 10.2856 81.4045 10.5979 82.0126 11.2225C82.6207 11.847 82.9247 12.5757 82.9247 13.5125C82.9247 14.4494 82.6207 15.178 82.0126 15.8026ZM78.1614 15.2821C78.5668 15.6985 79.1749 16.0108 79.783 16.0108C80.391 16.0108 80.9991 15.8026 81.4045 15.2821C81.8099 14.8658 82.1139 14.2412 82.1139 13.5125C82.1139 12.7839 81.9112 12.1593 81.4045 11.743C80.9991 11.3266 80.391 11.0143 79.783 11.0143C79.1749 11.0143 78.5668 11.2225 78.1614 11.743C77.756 12.1593 77.452 12.7839 77.452 13.5125C77.452 14.2412 77.6547 14.8658 78.1614 15.2821ZM84.0395 16.6353V10.3897H84.9516L87.8907 15.2821V10.3897H88.7014V16.6353H87.8907L84.7489 11.5348V16.6353H84.0395Z"
            fill="white" />
        <path
            d="M76.4383 25.7955C74.006 25.7955 72.0804 27.6692 72.0804 30.2715C72.0804 32.7697 74.006 34.7475 76.4383 34.7475C78.8706 34.7475 80.7962 32.8738 80.7962 30.2715C80.7962 27.5651 78.8706 25.7955 76.4383 25.7955ZM76.4383 32.8738C75.1208 32.8738 74.006 31.7288 74.006 30.1674C74.006 28.606 75.1208 27.461 76.4383 27.461C77.7558 27.461 78.8706 28.5019 78.8706 30.1674C78.8706 31.7288 77.7558 32.8738 76.4383 32.8738ZM67.0131 25.7955C64.5808 25.7955 62.6552 27.6692 62.6552 30.2715C62.6552 32.7697 64.5808 34.7475 67.0131 34.7475C69.4454 34.7475 71.371 32.8738 71.371 30.2715C71.371 27.5651 69.4454 25.7955 67.0131 25.7955ZM67.0131 32.8738C65.6956 32.8738 64.5808 31.7288 64.5808 30.1674C64.5808 28.606 65.6956 27.461 67.0131 27.461C68.3306 27.461 69.4454 28.5019 69.4454 30.1674C69.4454 31.7288 68.3306 32.8738 67.0131 32.8738ZM55.7637 27.1487V29.0224H60.1216C60.0202 30.0633 59.6149 30.896 59.1081 31.4165C58.5001 32.0411 57.4866 32.7697 55.7637 32.7697C53.0274 32.7697 51.0004 30.5838 51.0004 27.7732C51.0004 24.9627 53.1287 22.7768 55.7637 22.7768C57.1826 22.7768 58.2974 23.4013 59.1081 24.13L60.4256 22.7768C59.3108 21.7358 57.892 20.9031 55.8651 20.9031C52.2166 20.9031 49.0749 24.0259 49.0749 27.7732C49.0749 31.5206 52.2166 34.6434 55.8651 34.6434C57.892 34.6434 59.3108 34.0189 60.527 32.6656C61.7431 31.4165 62.1485 29.6469 62.1485 28.2937C62.1485 27.8773 62.1485 27.461 62.0472 27.1487H55.7637ZM101.775 28.606C101.369 27.5651 100.356 25.7955 98.1264 25.7955C95.8968 25.7955 94.0726 27.5651 94.0726 30.2715C94.0726 32.7697 95.8968 34.7475 98.3291 34.7475C100.255 34.7475 101.471 33.4984 101.876 32.7697L100.457 31.7288C99.9506 32.4575 99.3425 32.9779 98.3291 32.9779C97.3156 32.9779 96.7076 32.5615 96.2008 31.6247L101.978 29.1265L101.775 28.606ZM95.8968 30.0633C95.8968 28.3978 97.2143 27.461 98.1264 27.461C98.8358 27.461 99.5452 27.8773 99.7479 28.3978L95.8968 30.0633ZM91.1335 34.3311H93.0591V21.3194H91.1335V34.3311ZM88.0931 26.7323C87.5864 26.2118 86.7756 25.6914 85.7622 25.6914C83.6339 25.6914 81.607 27.6692 81.607 30.1674C81.607 32.6656 83.5326 34.5393 85.7622 34.5393C86.7756 34.5393 87.5864 34.0189 87.9918 33.4984H88.0931V34.1229C88.0931 35.7884 87.181 36.7253 85.7622 36.7253C84.6474 36.7253 83.8366 35.8925 83.6339 35.1639L82.0124 35.8925C82.5191 37.0376 83.7352 38.4949 85.8635 38.4949C88.0931 38.4949 89.9174 37.1417 89.9174 33.9148V26.0037H88.0931V26.7323ZM85.8635 32.8738C84.546 32.8738 83.4312 31.7288 83.4312 30.1674C83.4312 28.606 84.546 27.461 85.8635 27.461C87.181 27.461 88.1945 28.606 88.1945 30.1674C88.1945 31.7288 87.181 32.8738 85.8635 32.8738ZM110.592 21.3194H106.031V34.3311H107.957V29.4387H110.592C112.72 29.4387 114.747 27.8773 114.747 25.3791C114.747 22.8809 112.72 21.3194 110.592 21.3194ZM110.693 27.5651H107.957V23.089H110.693C112.112 23.089 112.923 24.3382 112.923 25.275C112.822 26.42 112.011 27.5651 110.693 27.5651ZM122.348 25.6914C120.929 25.6914 119.51 26.3159 119.004 27.6692L120.727 28.3978C121.132 27.6692 121.74 27.461 122.449 27.461C123.463 27.461 124.375 28.0855 124.476 29.1265V29.2306C124.172 29.0224 123.362 28.7101 122.551 28.7101C120.727 28.7101 118.902 29.751 118.902 31.6247C118.902 33.3943 120.423 34.5393 122.044 34.5393C123.362 34.5393 123.97 33.9148 124.476 33.2902H124.578V34.3311H126.402V29.3346C126.199 27.0446 124.476 25.6914 122.348 25.6914ZM122.145 32.8738C121.537 32.8738 120.625 32.5615 120.625 31.7288C120.625 30.6879 121.74 30.3756 122.652 30.3756C123.463 30.3756 123.868 30.5838 124.375 30.792C124.172 32.0411 123.159 32.8738 122.145 32.8738ZM132.787 26.0037L130.659 31.6247H130.557L128.328 26.0037H126.301L129.645 33.9148L127.719 38.2867H129.645L134.814 26.0037H132.787ZM115.761 34.3311H117.686V21.3194H115.761V34.3311Z"
            fill="white" />
        <defs>
            <linearGradient id="paint0_linear_440_1344" x1="27.3874" y1="12.6194" x2="9.9237" y2="29.6212"
                gradientUnits="userSpaceOnUse">
                <stop stop-color="#00A0FF" />
                <stop offset="0.007" stop-color="#00A1FF" />
                <stop offset="0.26" stop-color="#00BEFF" />
                <stop offset="0.512" stop-color="#00D2FF" />
                <stop offset="0.76" stop-color="#00DFFF" />
                <stop offset="1" stop-color="#00E3FF" />
            </linearGradient>
            <linearGradient id="paint1_linear_440_1344" x1="39.5837" y1="24.3725" x2="15.061" y2="24.3725"
                gradientUnits="userSpaceOnUse">
                <stop stop-color="#FFE000" />
                <stop offset="0.409" stop-color="#FFBD00" />
                <stop offset="0.775" stop-color="#FFA500" />
                <stop offset="1" stop-color="#FF9C00" />
            </linearGradient>
            <linearGradient id="paint2_linear_440_1344" x1="30.4553" y1="26.7616" x2="6.77423" y2="49.8177"
                gradientUnits="userSpaceOnUse">
                <stop stop-color="#FF3A44" />
                <stop offset="1" stop-color="#C31162" />
            </linearGradient>
            <linearGradient id="paint3_linear_440_1344" x1="12.6894" y1="3.73595" x2="23.2646" y2="14.0321"
                gradientUnits="userSpaceOnUse">
                <stop stop-color="#32A071" />
                <stop offset="0.069" stop-color="#2DA771" />
                <stop offset="0.476" stop-color="#15CF74" />
                <stop offset="0.801" stop-color="#06E775" />
                <stop offset="1" stop-color="#00F076" />
            </linearGradient>
        </defs>
    </symbol>
    <symbol id="hamburger" viewBox="0 0 20 14" aria-label="" shape-rendering="geometricPrecision">
        <path fill-rule="evenodd" clip-rule="evenodd"
            d="M0 5C0 4.44772 0.447715 4 1 4H19C19.5523 4 20 4.44772 20 5C20 5.55228 19.5523 6 19 6H1C0.447715 6 0 5.55228 0 5Z"
            fill="currentColor" />
        <path fill-rule="evenodd" clip-rule="evenodd"
            d="M0 1C0 0.447715 0.447715 0 1 0H19C19.5523 0 20 0.447715 20 1C20 1.55228 19.5523 2 19 2H1C0.447715 2 0 1.55228 0 1Z"
            fill="currentColor" />
        <path fill-rule="evenodd" clip-rule="evenodd"
            d="M0 9C0 8.44771 0.447715 8 1 8H19C19.5523 8 20 8.44771 20 9C20 9.55229 19.5523 10 19 10H1C0.447715 10 0 9.55229 0 9Z"
            fill="currentColor" />
        <path fill-rule="evenodd" clip-rule="evenodd"
            d="M0 13C0 12.4477 0.447715 12 1 12H19C19.5523 12 20 12.4477 20 13C20 13.5523 19.5523 14 19 14H1C0.447715 14 0 13.5523 0 13Z"
            fill="currentColor" /> />
    </symbol>
    <symbol id="ig" viewBox="0 0 33 33">
        <path
            d="M16.2789 32.5579C25.2696 32.5579 32.5579 25.2696 32.5579 16.2789C32.5579 7.28833 25.2696 0 16.2789 0C7.28833 0 0 7.28833 0 16.2789C0 25.2696 7.28833 32.5579 16.2789 32.5579Z"
            fill="#D7E8FD" />
        <path fill-rule="evenodd" clip-rule="evenodd"
            d="M16.6412 10.8525C15.1676 10.8525 14.9827 10.859 14.4038 10.8851C13.8263 10.9116 13.4318 11.0035 13.0869 11.1374C12.7298 11.2761 12.4273 11.4616 12.1258 11.7635C11.8239 12.065 11.6384 12.3675 11.4997 12.7246C11.3654 13.0695 11.2739 13.464 11.2474 14.0415C11.2209 14.6204 11.2148 14.8053 11.2148 16.2789C11.2148 17.7528 11.2209 17.9376 11.2474 18.5162C11.2739 19.0938 11.3654 19.4882 11.4997 19.8334C11.6384 20.1902 11.8239 20.4927 12.1258 20.7946C12.4273 21.0961 12.7298 21.2816 13.0869 21.4203C13.4318 21.5546 13.8263 21.6462 14.4038 21.6726C14.9827 21.6991 15.1676 21.7052 16.6412 21.7052C18.1147 21.7052 18.2996 21.6991 18.8785 21.6726C19.4561 21.6462 19.8505 21.5546 20.1954 21.4203C20.5525 21.2816 20.855 21.0961 21.1565 20.7946C21.4584 20.4927 21.6439 20.1902 21.7826 19.8334C21.9169 19.4882 22.0085 19.0938 22.0349 18.5162C22.0614 17.9376 22.0675 17.7528 22.0675 16.2789C22.0675 14.8053 22.0614 14.6204 22.0349 14.0415C22.0085 13.464 21.9169 13.0695 21.7826 12.7246C21.6439 12.3675 21.4584 12.065 21.1565 11.7635C20.855 11.4616 20.5525 11.2761 20.1954 11.1374C19.8505 11.0035 19.4561 10.9116 18.8785 10.8851C18.2996 10.859 18.1147 10.8525 16.6412 10.8525ZM16.6412 11.8303C18.09 11.8303 18.2616 11.8357 18.8337 11.8618C19.3628 11.8859 19.6504 11.9744 19.8417 12.0487C20.0947 12.1471 20.2754 12.2647 20.4654 12.4547C20.6553 12.6446 20.773 12.8253 20.8713 13.0783C20.9456 13.2696 21.0341 13.5572 21.0582 14.0863C21.0843 14.6584 21.0897 14.83 21.0897 16.2789C21.0897 17.7277 21.0843 17.8993 21.0582 18.4714C21.0341 19.0005 20.9456 19.2881 20.8713 19.4794C20.773 19.7324 20.6553 19.9131 20.4654 20.103C20.2754 20.293 20.0947 20.4107 19.8417 20.509C19.6504 20.5833 19.3628 20.6718 18.8337 20.6959C18.2616 20.722 18.09 20.7274 16.6412 20.7274C15.1923 20.7274 15.0207 20.722 14.4486 20.6959C13.9195 20.6718 13.6319 20.5833 13.4406 20.509C13.1876 20.4107 13.0069 20.293 12.817 20.103C12.627 19.9131 12.5094 19.7324 12.411 19.4794C12.3367 19.2881 12.2482 19.0005 12.2241 18.4714C12.198 17.8993 12.1926 17.7277 12.1926 16.2789C12.1926 14.83 12.198 14.6584 12.2241 14.0863C12.2482 13.5572 12.3367 13.2696 12.411 13.0783C12.5094 12.8253 12.627 12.6446 12.817 12.4547C13.0069 12.2647 13.1876 12.1471 13.4406 12.0487C13.6319 11.9744 13.9195 11.8859 14.4486 11.8618C15.0207 11.8357 15.1923 11.8303 16.6412 11.8303Z"
            fill="#004D9C" />
        <path fill-rule="evenodd" clip-rule="evenodd"
            d="M16.6419 18.0876C15.6431 18.0876 14.8332 17.2777 14.8332 16.2789C14.8332 15.2798 15.6431 14.4699 16.6419 14.4699C17.6407 14.4699 18.4505 15.2798 18.4505 16.2789C18.4505 17.2777 17.6407 18.0876 16.6419 18.0876ZM16.6419 13.4922C15.1028 13.4922 13.8555 14.7399 13.8555 16.2789C13.8555 17.818 15.1028 19.0654 16.6419 19.0654C18.1809 19.0654 19.4283 17.818 19.4283 16.2789C19.4283 14.7399 18.1809 13.4922 16.6419 13.4922Z"
            fill="#004D9C" />
        <path fill-rule="evenodd" clip-rule="evenodd"
            d="M20.189 13.3826C20.189 13.7421 19.8974 14.0338 19.5379 14.0338C19.1784 14.0338 18.8867 13.7421 18.8867 13.3826C18.8867 13.0228 19.1784 12.7314 19.5379 12.7314C19.8974 12.7314 20.189 13.0228 20.189 13.3826Z"
            fill="#004D9C" />
    </symbol>

    <symbol id="linkedin" viewBox="0 0 13 13">
        <path fill-rule="evenodd" clip-rule="evenodd"
            d="M0.602139 12.3421H3.00933V4.60975H0.602139V12.3421ZM1.80616 3.55495C1.03446 3.55495 0.411133 2.92821 0.411133 2.16078C0.411133 1.39164 1.03446 0.766602 1.80616 0.766602C2.5753 0.766602 3.20034 1.39164 3.20034 2.16078C3.20034 2.92821 2.5753 3.55495 1.80616 3.55495Z"
            fill="#004D9C" />
        <path fill-rule="evenodd" clip-rule="evenodd"
            d="M12.0127 12.342H9.60982V8.58246C9.60982 7.68542 9.59191 6.53256 8.3606 6.53256C7.10968 6.53256 6.91868 7.50805 6.91868 8.51766V12.342H4.5166V4.6097H6.82232V5.66791H6.85387C7.17449 5.05908 7.95983 4.41699 9.12974 4.41699C11.5634 4.41699 12.0127 6.01923 12.0127 8.10154V12.342Z"
            fill="#004D9C" />
    </symbol>

    <symbol id="tweeter" viewBox="0 0 15 11">
        <path
            d="M16.3962 32.56C25.3874 32.56 32.6762 25.2712 32.6762 16.28C32.6762 7.2888 25.3874 0 16.3962 0C7.40502 0 0.116211 7.2888 0.116211 16.28C0.116211 25.2712 7.40502 32.56 16.3962 32.56Z"
            fill="#004D9C" />
        <path
            d="M23.1715 12.303C22.7944 12.8639 22.3317 13.342 21.7836 13.7374C21.789 13.8435 21.7917 13.9633 21.7917 14.097C21.7917 14.8396 21.6834 15.5832 21.4668 16.3277C21.2503 17.0721 20.9195 17.7847 20.4745 18.4654C20.0295 19.1462 19.4993 19.7492 18.8842 20.2746C18.269 20.8 17.5295 21.2189 16.6657 21.5313C15.8019 21.8438 14.8762 22 13.8885 22C12.347 22 10.9275 21.5839 9.62988 20.7516C9.86019 20.7772 10.0811 20.79 10.2925 20.79C11.5803 20.79 12.7305 20.3934 13.7431 19.6001C13.1427 19.5891 12.6049 19.4042 12.1299 19.0456C11.6549 18.6869 11.328 18.2286 11.1492 17.6707C11.3259 17.7044 11.5003 17.7212 11.6724 17.7212C11.9202 17.7212 12.1639 17.6889 12.4037 17.6243C11.7629 17.4959 11.2314 17.1768 10.809 16.6668C10.3866 16.1569 10.1754 15.5683 10.1754 14.9011V14.8667C10.5688 15.0845 10.9883 15.2003 11.434 15.2142C11.0544 14.9612 10.7535 14.6312 10.5312 14.2242C10.3088 13.8173 10.1976 13.3769 10.1976 12.9031C10.1976 12.4034 10.3229 11.9381 10.5733 11.5071C11.2701 12.3622 12.1145 13.0457 13.1064 13.5574C14.0983 14.0692 15.1624 14.3534 16.2987 14.4101C16.2502 14.2081 16.226 13.9973 16.2259 13.7777C16.2259 13.0111 16.4972 12.3564 17.0398 11.8139C17.5824 11.2713 18.2371 11 19.0038 11C19.8064 11 20.4825 11.2923 21.0321 11.8768C21.6599 11.7525 22.2478 11.5275 22.7957 11.202C22.5846 11.8663 22.1779 12.3788 21.5755 12.7394C22.1291 12.6736 22.6611 12.5282 23.1714 12.303H23.1715Z"
            fill="#004D9C" />

    </symbol>

    <symbol id="fb" viewBox="0 0 7 12">
        <path fill-rule="evenodd" clip-rule="evenodd"
            d="M1.38478 6.47775V11.7068H3.94387V6.50259H5.69085L6.11381 4.33296H3.96224V2.74154C3.96224 2.52166 4.0802 2.22799 4.43849 2.22799H5.68203V0.0185547H3.35995C2.55849 0.0185547 1.37596 0.999268 1.37596 2.04207V4.27124H0.0332031V6.46862L1.38478 6.47775Z"
            fill="#004D9C" />
    </symbol>

    <symbol id="close" viewBox="0 0 24 24">
        <path fill-rule="evenodd" clip-rule="evenodd"
            d="M18.7071 5.29289C19.0976 5.68342 19.0976 6.31658 18.7071 6.70711L6.70711 18.7071C6.31658 19.0976 5.68342 19.0976 5.29289 18.7071C4.90237 18.3166 4.90237 17.6834 5.29289 17.2929L17.2929 5.29289C17.6834 4.90237 18.3166 4.90237 18.7071 5.29289Z"
            fill="#002E48" />
        <path fill-rule="evenodd" clip-rule="evenodd"
            d="M5.29289 5.29289C5.68342 4.90237 6.31658 4.90237 6.70711 5.29289L18.7071 17.2929C19.0976 17.6834 19.0976 18.3166 18.7071 18.7071C18.3166 19.0976 17.6834 19.0976 17.2929 18.7071L5.29289 6.70711C4.90237 6.31658 4.90237 5.68342 5.29289 5.29289Z"
            fill="#002E48" />
    </symbol>

    <symbol id="search" width="24" height="24" viewBox="0 0 24 24" fill="none" xmlns="http://www.w3.org/2000/svg">
        <path fill-rule="evenodd" clip-rule="evenodd"
            d="M11 4C7.13401 4 4 7.13401 4 11C4 14.866 7.13401 18 11 18C14.866 18 18 14.866 18 11C18 7.13401 14.866 4 11 4ZM2 11C2 6.02944 6.02944 2 11 2C15.9706 2 20 6.02944 20 11C20 15.9706 15.9706 20 11 20C6.02944 20 2 15.9706 2 11Z"
            fill="#7C7C7C" />
        <path fill-rule="evenodd" clip-rule="evenodd"
            d="M15.9428 15.9428C16.3333 15.5523 16.9665 15.5523 17.357 15.9428L21.707 20.2928C22.0975 20.6833 22.0975 21.3165 21.707 21.707C21.3165 22.0975 20.6833 22.0975 20.2928 21.707L15.9428 17.357C15.5523 16.9665 15.5523 16.3333 15.9428 15.9428Z"
            fill="#7C7C7C" />
    </symbol>

    <symbol id="globe" viewBox="0 0 25 24" fill="none" xmlns="http://www.w3.org/2000/svg">
        <path
            d="M14.6683 0C17.5614 0.582641 20.0801 2.1928 21.8427 4.42488H17.691C17.515 3.95543 17.3162 3.50568 17.1083 3.0864C16.4546 1.76827 15.6325 0.687734 14.6684 0H14.6683ZM9.8065 0C8.8424 0.687734 8.02033 1.76827 7.36657 3.0864C7.15867 3.50566 6.95971 3.9554 6.78393 4.42488H2.63219C4.39478 2.19285 6.91358 0.58285 9.8066 0H9.8065ZM12.82 0.409706C14.0263 0.680201 15.1693 1.7884 16.0704 3.60547C16.1999 3.86641 16.3267 4.13811 16.4437 4.42488H12.8202V0.409706H12.82ZM11.6547 0.409706V4.42488H8.03116C8.14821 4.13813 8.27503 3.86643 8.40448 3.60547C9.30558 1.7884 10.4485 0.680191 11.6549 0.409706H11.6547ZM22.653 5.59016C23.3119 6.65873 23.822 7.83296 24.1281 9.08627H18.7746C18.6295 7.84129 18.3909 6.66887 18.0734 5.59016H22.653ZM16.8531 5.59016C17.1854 6.64692 17.4445 7.82344 17.5996 9.08627H12.8197V5.59016H16.8531ZM11.6544 5.59016V9.08627H6.87446C7.02952 7.82344 7.28863 6.64692 7.62093 5.59016H11.6544ZM6.40076 5.59016C6.08331 6.66908 5.8447 7.84134 5.6996 9.08627H0.346105C0.652164 7.83296 1.16229 6.65873 1.82115 5.59016H6.40076ZM24.355 10.2518C24.4365 10.8223 24.4733 11.407 24.4733 12C24.4733 12.593 24.4365 13.1775 24.355 13.7482H18.874C18.9131 13.1761 18.9379 12.594 18.9379 12C18.9379 11.406 18.9131 10.8245 18.874 10.2518H24.355ZM17.7087 10.2518C17.7497 10.8223 17.7725 11.4058 17.7725 12C17.7725 12.5942 17.7497 13.1777 17.7087 13.7482H12.8194V10.2521H17.7087V10.2518ZM11.6538 10.2518V13.7479H6.76458C6.72352 13.1775 6.70076 12.5942 6.70076 11.9997C6.70076 11.4055 6.72352 10.822 6.76458 10.2516H11.6538V10.2518ZM5.59903 10.2518C5.56022 10.8243 5.53542 11.4058 5.53542 11.9998C5.53542 12.5938 5.56021 13.1757 5.59924 13.748H0.118276C0.0367825 13.1775 0 12.5928 0 11.9998C0 11.4067 0.036784 10.8221 0.118276 10.2516H5.59924L5.59903 10.2518ZM24.1266 14.9135C23.8205 16.1668 23.3104 17.341 22.6516 18.4096H18.0721C18.3895 17.3323 18.6281 16.157 18.7732 14.9135H24.1266ZM17.5984 14.9135C17.4433 16.1763 17.1842 17.3528 16.8519 18.4096H12.8187V14.9135H17.5986H17.5984ZM11.6533 14.9135V18.4096H7.6201C7.28782 17.3528 7.02871 16.1763 6.87362 14.9135H11.6535H11.6533ZM5.69892 14.9135C5.84403 16.157 6.08262 17.3323 6.40008 18.4096H1.82058C1.16172 17.341 0.651602 16.1668 0.345532 14.9135H5.69892ZM21.8411 19.5751C20.0767 21.8094 17.5542 23.4188 14.6578 24C15.6262 23.31 16.4509 22.2271 17.1069 20.9044C17.3146 20.4854 17.5138 20.0438 17.6896 19.5751H21.8411ZM16.4423 19.5751C16.3253 19.8621 16.1985 20.1336 16.069 20.3945C15.1679 22.2116 14.0249 23.3198 12.8186 23.5903V19.5751H16.4423ZM11.6533 19.5751V23.5903C10.4469 23.3198 9.30398 22.2116 8.40283 20.3945C8.27337 20.1336 8.14656 19.8621 8.0295 19.5751H11.6533ZM6.78232 19.5751C6.95811 20.0438 7.15727 20.4854 7.36496 20.9044C8.02096 22.2271 8.84568 23.31 9.81404 24C6.91722 23.4188 4.39499 21.8094 2.63078 19.5751H6.78232Z"
            fill="#163A73" />
    </symbol>
    <symbol id="copy" viewBox="0 0 25 24">
        <path fill-rule="evenodd" clip-rule="evenodd"
            d="M11.5 10C10.9477 10 10.5 10.4477 10.5 11V20C10.5 20.5523 10.9477 21 11.5 21H20.5C21.0523 21 21.5 20.5523 21.5 20V11C21.5 10.4477 21.0523 10 20.5 10H11.5ZM8.5 11C8.5 9.34315 9.84315 8 11.5 8H20.5C22.1569 8 23.5 9.34315 23.5 11V20C23.5 21.6569 22.1569 23 20.5 23H11.5C9.84315 23 8.5 21.6569 8.5 20V11Z"
            fill="#004D9C" />
        <path fill-rule="evenodd" clip-rule="evenodd"
            d="M4.5 3C4.23478 3 3.98043 3.10536 3.79289 3.29289C3.60536 3.48043 3.5 3.73478 3.5 4V13C3.5 13.2652 3.60536 13.5196 3.79289 13.7071C3.98043 13.8946 4.23478 14 4.5 14H5.5C6.05228 14 6.5 14.4477 6.5 15C6.5 15.5523 6.05228 16 5.5 16H4.5C3.70435 16 2.94129 15.6839 2.37868 15.1213C1.81607 14.5587 1.5 13.7956 1.5 13V4C1.5 3.20435 1.81607 2.44129 2.37868 1.87868C2.94129 1.31607 3.70435 1 4.5 1H13.5C14.2956 1 15.0587 1.31607 15.6213 1.87868C16.1839 2.44129 16.5 3.20435 16.5 4V5C16.5 5.55228 16.0523 6 15.5 6C14.9477 6 14.5 5.55228 14.5 5V4C14.5 3.73478 14.3946 3.48043 14.2071 3.29289C14.0196 3.10536 13.7652 3 13.5 3H4.5Z"
            fill="#004D9C" />
    </symbol>

<symbol id="grid-box"  viewBox="0 0 25 24">
<path d="M24.5006 2.49121C24.5006 1.11524 23.3853 0 22.0094 0H16.4038C15.0278 0 13.9124 1.11524 13.9124 2.49121V8.09657C13.9124 9.4728 15.0278 10.5883 16.4038 10.5883H22.0092C23.3854 10.5883 24.5006 9.4728 24.5006 8.09683L24.5006 2.49121ZM23.0889 8.09632C23.0889 8.69285 22.6054 9.17639 22.0094 9.17639H16.4038C15.8078 9.17639 15.3243 8.69287 15.3243 8.09632V2.49171C15.3243 1.89519 15.8078 1.41165 16.4038 1.41165H22.0092C22.6055 1.41165 23.089 1.89517 23.089 2.49171L23.0889 8.09632Z" fill="currentColor"/>
<path d="M11.0885 2.49121C11.0885 1.11524 9.97298 0 8.59701 0H2.99145C1.61548 0 0.500244 1.11524 0.500244 2.49121V8.09657C0.500244 9.4728 1.61548 10.5883 2.99145 10.5883H8.59682C9.97304 10.5883 11.0885 9.4728 11.0885 8.09683L11.0885 2.49121ZM9.67657 8.09632C9.67657 8.69285 9.19305 9.17639 8.59701 9.17639H2.99145C2.39542 9.17639 1.91189 8.69287 1.91189 8.09632V2.49171C1.91189 1.89519 2.39542 1.41165 2.99145 1.41165H8.59682C9.1931 1.41165 9.67663 1.89517 9.67663 2.49171L9.67657 8.09632Z" fill="currentColor"/>
<path d="M24.5006 15.9037C24.5006 14.5275 23.3854 13.412 22.0092 13.412L16.4038 13.4117C15.0278 13.4117 13.9124 14.5275 13.9124 15.9037V21.5083C13.9124 22.8845 15.0276 24 16.4038 24H22.0092C23.3854 24 24.5006 22.8845 24.5006 21.5083V15.9037ZM23.089 21.5088C23.089 22.1048 22.6055 22.5884 22.0094 22.5884H16.4039C15.8078 22.5884 15.3243 22.1049 15.3243 21.5088V15.9033C15.3243 15.3072 15.8078 14.8237 16.4039 14.8237H22.0092C22.6055 14.8237 23.0891 15.3072 23.0891 15.9033L23.089 21.5088Z" fill="currentColor"/>
<path d="M11.0885 15.9037C11.0885 14.5275 9.97323 13.412 8.59701 13.412L2.99145 13.4117C1.61548 13.4117 0.500244 14.5275 0.500244 15.9037V21.5083C0.500244 22.8845 1.61548 24 2.99171 24H8.59707C9.97304 24 11.0885 22.8845 11.0885 21.5083L11.0885 15.9037ZM9.67657 21.5088C9.67657 22.1048 9.19305 22.5884 8.59701 22.5884H2.99145C2.39542 22.5884 1.91189 22.1049 1.91189 21.5088V15.9033C1.91189 15.3072 2.39542 14.8237 2.99145 14.8237H8.59682C9.1931 14.8237 9.67663 15.3072 9.67663 15.9033L9.67657 21.5088Z" fill="currentColor"/>
</symbol>

<symbol id="list-box"  viewBox="0 0 26 24">
<path d="M5.51969 4.21464H1.83067H1.30982L2.11939 5.02421V1.33518V0.814335L1.30982 1.62391H4.99884H5.51969L4.71012 0.814335V4.50336V5.02421C4.71012 5.44789 5.08253 5.85268 5.51969 5.83378C5.95957 5.81489 6.32927 5.47756 6.32927 5.02421V1.33518V0.814335C6.32927 0.377157 5.95956 0.00476074 5.51969 0.00476074H1.83067H1.30982C0.872641 0.00476074 0.500244 0.374473 0.500244 0.814335V4.50336V5.02421C0.500244 5.46139 0.869956 5.83378 1.30982 5.83378H4.99884H5.51969C5.94337 5.83378 6.34817 5.46137 6.32927 5.02421C6.31038 4.58433 5.97305 4.21464 5.51969 4.21464Z" fill="currentColor"/>
<path d="M5.51969 13.3086H1.83067H1.30982L2.11939 14.1182V10.4292V9.90833L1.30982 10.7179H4.99884H5.51969L4.71012 9.90833V13.5974V14.1182C4.71012 14.5419 5.08253 14.9467 5.51969 14.9278C5.95957 14.9089 6.32927 14.5716 6.32927 14.1182V10.4292V9.90833C6.32927 9.47115 5.95956 9.09875 5.51969 9.09875H1.83067H1.30982C0.872641 9.09875 0.500244 9.46847 0.500244 9.90833V13.5974V14.1182C0.500244 14.5554 0.869956 14.9278 1.30982 14.9278H4.99884H5.51969C5.94337 14.9278 6.34817 14.5554 6.32927 14.1182C6.31038 13.6783 5.97305 13.3086 5.51969 13.3086Z" fill="currentColor"/>
<path d="M5.51969 22.376H1.83067H1.30982L2.11939 23.1856V19.4966V18.9757L1.30982 19.7853H4.99884H5.51969L4.71012 18.9757V22.6647V23.1856C4.71012 23.6093 5.08253 24.0141 5.51969 23.9952C5.95957 23.9763 6.32927 23.6389 6.32927 23.1856V19.4966V18.9757C6.32927 18.5385 5.95956 18.1661 5.51969 18.1661H1.83067H1.30982C0.872641 18.1661 0.500244 18.5358 0.500244 18.9757V22.6647V23.1856C0.500244 23.6228 0.869956 23.9952 1.30982 23.9952H4.99884H5.51969C5.94337 23.9952 6.34817 23.6227 6.32927 23.1856C6.31038 22.7457 5.97305 22.376 5.51969 22.376Z" fill="currentColor"/>
<path d="M25.1114 4.21467H23.4517H19.4685H14.6488H10.4821C9.81015 4.21467 9.13278 4.19848 8.46083 4.21467H8.43384L9.24342 5.02425V1.33522V0.814372L8.43384 1.62395H10.0935H14.0767H18.8964H23.0631C23.7351 1.62395 24.4124 1.64014 25.0844 1.62395H25.1114L24.3018 0.814372V4.5034V5.02425C24.3018 5.44793 24.6742 5.85272 25.1114 5.83382C25.5513 5.81493 25.921 5.4776 25.921 5.02425V1.33522V0.814372C25.921 0.377194 25.5512 0.00479755 25.1114 0.00479755H23.4517H19.4685H14.6488H10.4821C9.80744 0.00479755 9.13549 -0.00599694 8.46083 0.00479755H8.43384C7.99666 0.00479755 7.62427 0.374509 7.62427 0.814372V4.5034V5.02425C7.62427 5.46142 7.99398 5.83382 8.43384 5.83382H10.0935H14.0767H18.8964H23.0631C23.7378 5.83382 24.4097 5.84462 25.0844 5.83382H25.1114C25.5351 5.83382 25.9399 5.46141 25.921 5.02425C25.9021 4.58437 25.5647 4.21467 25.1114 4.21467Z" fill="currentColor"/>
<path d="M25.1114 13.3087H23.4517H19.4685H14.6488H10.4821C9.81015 13.3087 9.13278 13.2925 8.46083 13.3087H8.43384L9.24342 14.1182V10.4292V9.90837L8.43384 10.7179H10.0935H14.0767H18.8964H23.0631C23.7351 10.7179 24.4124 10.7341 25.0844 10.7179H25.1114L24.3018 9.90837V13.5974V14.1182C24.3018 14.5419 24.6742 14.9467 25.1114 14.9278C25.5513 14.9089 25.921 14.5716 25.921 14.1182V10.4292V9.90837C25.921 9.47119 25.5512 9.09879 25.1114 9.09879H23.4517H19.4685H14.6488H10.4821C9.80744 9.09879 9.13549 9.088 8.46083 9.09879H8.43384C7.99666 9.09879 7.62427 9.4685 7.62427 9.90837V13.5974V14.1182C7.62427 14.5554 7.99398 14.9278 8.43384 14.9278H10.0935H14.0767H18.8964H23.0631C23.7378 14.9278 24.4097 14.9386 25.0844 14.9278H25.1114C25.5351 14.9278 25.9399 14.5554 25.921 14.1182C25.9021 13.6784 25.5647 13.3087 25.1114 13.3087Z" fill="currentColor"/>
<path d="M25.1114 22.376H23.4517H19.4685H14.6488H10.4821C9.81015 22.376 9.13278 22.3599 8.46083 22.376H8.43384L9.24342 23.1856V19.4966V18.9757L8.43384 19.7853H10.0935H14.0767H18.8964H23.0631C23.7351 19.7853 24.4124 19.8015 25.0844 19.7853H25.1114L24.3018 18.9757V22.6648V23.1856C24.3018 23.6093 24.6742 24.0141 25.1114 23.9952C25.5513 23.9763 25.921 23.639 25.921 23.1856V19.4966V18.9757C25.921 18.5386 25.5512 18.1662 25.1114 18.1662H23.4517H19.4685H14.6488H10.4821C9.80744 18.1662 9.13549 18.1554 8.46083 18.1662H8.43384C7.99666 18.1662 7.62427 18.5359 7.62427 18.9757V22.6648V23.1856C7.62427 23.6228 7.99398 23.9952 8.43384 23.9952H10.0935H14.0767H18.8964H23.0631C23.7378 23.9952 24.4097 24.006 25.0844 23.9952H25.1114C25.5351 23.9952 25.9399 23.6228 25.921 23.1856C25.9021 22.7457 25.5647 22.376 25.1114 22.376Z" fill="currentColor"/>
</symbol>


</svg>
