<svg width="4061" height="2591" viewBox="0 0 4061 2591" fill="none" xmlns="http://www.w3.org/2000/svg">
<path d="M2076.77 1213.5H1983.72C1938.46 1213.5 1901.77 1250.19 1901.77 1295.45V1295.46C1901.77 1340.72 1938.46 1377.41 1983.72 1377.41H2076.77C2122.03 1377.41 2158.72 1340.72 2158.72 1295.46V1295.45C2158.72 1250.19 2122.03 1213.5 2076.77 1213.5Z" stroke="#004D9C" stroke-width="2" stroke-miterlimit="10"/>
<path d="M2088.05 1193.62H1972.44C1916.2 1193.62 1870.61 1239.21 1870.61 1295.45C1870.61 1351.69 1916.2 1397.28 1972.44 1397.28H2088.05C2144.29 1397.28 2189.88 1351.69 2189.88 1295.45C2189.88 1239.21 2144.29 1193.62 2088.05 1193.62Z" stroke="#004D9C" stroke-width="2" stroke-miterlimit="10"/>
<path d="M2099.33 1173.74H1961.16C1893.94 1173.74 1839.45 1228.23 1839.45 1295.45C1839.45 1362.67 1893.94 1417.16 1961.16 1417.16H2099.33C2166.55 1417.16 2221.04 1362.67 2221.04 1295.45C2221.04 1228.23 2166.55 1173.74 2099.33 1173.74Z" stroke="#004D9C" stroke-width="2" stroke-miterlimit="10"/>
<path d="M2110.61 1153.87H1949.88C1871.68 1153.87 1808.29 1217.26 1808.29 1295.45C1808.29 1373.65 1871.68 1437.04 1949.88 1437.04H2110.61C2188.81 1437.04 2252.2 1373.65 2252.2 1295.45C2252.2 1217.26 2188.81 1153.87 2110.61 1153.87Z" stroke="#004D9C" stroke-width="2" stroke-miterlimit="10"/>
<path d="M2121.9 1133.99H1938.59C1849.42 1133.99 1777.13 1206.28 1777.13 1295.45C1777.13 1384.62 1849.42 1456.91 1938.59 1456.91H2121.9C2211.07 1456.91 2283.36 1384.62 2283.36 1295.45C2283.36 1206.28 2211.07 1133.99 2121.9 1133.99Z" stroke="#004D9C" stroke-width="2" stroke-miterlimit="10"/>
<path d="M2133.18 1114.11H1927.31C1827.16 1114.11 1745.97 1195.3 1745.97 1295.45C1745.97 1395.6 1827.16 1476.79 1927.31 1476.79H2133.18C2233.33 1476.79 2314.52 1395.6 2314.52 1295.45C2314.52 1195.3 2233.33 1114.11 2133.18 1114.11Z" stroke="#004D9C" stroke-width="2" stroke-miterlimit="10"/>
<path d="M2144.46 1094.23H1916.03C1804.9 1094.23 1714.81 1184.32 1714.81 1295.44C1714.81 1406.57 1804.9 1496.66 1916.03 1496.66H2144.46C2255.59 1496.66 2345.68 1406.57 2345.68 1295.44C2345.68 1184.32 2255.59 1094.23 2144.46 1094.23Z" stroke="#004D9C" stroke-width="2" stroke-miterlimit="10"/>
<path d="M2155.76 1074.36H1904.74C1782.64 1074.36 1683.65 1173.35 1683.65 1295.45V1295.46C1683.65 1417.56 1782.64 1516.55 1904.74 1516.55H2155.76C2277.86 1516.55 2376.85 1417.56 2376.85 1295.46V1295.45C2376.85 1173.35 2277.86 1074.36 2155.76 1074.36Z" stroke="#004D9C" stroke-width="2" stroke-miterlimit="10"/>
<path d="M2167.04 1054.48H1893.46C1760.38 1054.48 1652.49 1162.37 1652.49 1295.45C1652.49 1428.53 1760.38 1536.42 1893.46 1536.42H2167.04C2300.12 1536.42 2408.01 1428.53 2408.01 1295.45C2408.01 1162.37 2300.12 1054.48 2167.04 1054.48Z" stroke="#004D9C" stroke-width="2" stroke-miterlimit="10"/>
<path d="M2178.32 1034.6H1882.18C1738.12 1034.6 1621.33 1151.38 1621.33 1295.44C1621.33 1439.51 1738.12 1556.29 1882.18 1556.29H2178.32C2322.38 1556.29 2439.17 1439.51 2439.17 1295.44C2439.17 1151.38 2322.38 1034.6 2178.32 1034.6Z" stroke="#004D9C" stroke-width="2" stroke-miterlimit="10"/>
<path d="M2189.61 1014.73H1870.89C1715.85 1014.73 1590.17 1140.41 1590.17 1295.45V1295.46C1590.17 1450.5 1715.85 1576.18 1870.89 1576.18H2189.61C2344.65 1576.18 2470.33 1450.5 2470.33 1295.46V1295.45C2470.33 1140.41 2344.65 1014.73 2189.61 1014.73Z" stroke="#004D9C" stroke-width="2" stroke-miterlimit="10"/>
<path d="M2200.89 994.85H1859.61C1693.59 994.85 1559.01 1129.43 1559.01 1295.45C1559.01 1461.47 1693.59 1596.05 1859.61 1596.05H2200.89C2366.91 1596.05 2501.49 1461.47 2501.49 1295.45C2501.49 1129.43 2366.91 994.85 2200.89 994.85Z" stroke="#004D9C" stroke-width="2" stroke-miterlimit="10"/>
<path d="M2212.17 974.97H1848.33C1671.33 974.97 1527.85 1118.45 1527.85 1295.45C1527.85 1472.45 1671.33 1615.93 1848.33 1615.93H2212.17C2389.17 1615.93 2532.65 1472.45 2532.65 1295.45C2532.65 1118.45 2389.17 974.97 2212.17 974.97Z" stroke="#004D9C" stroke-width="2" stroke-miterlimit="10"/>
<path d="M2223.46 955.1H1837.04C1649.07 955.1 1496.69 1107.48 1496.69 1295.45V1295.46C1496.69 1483.43 1649.07 1635.81 1837.04 1635.81H2223.46C2411.43 1635.81 2563.81 1483.43 2563.81 1295.46V1295.45C2563.81 1107.48 2411.43 955.1 2223.46 955.1Z" stroke="#004D9C" stroke-width="2" stroke-miterlimit="10"/>
<path d="M2234.74 935.22H1825.76C1626.81 935.22 1465.53 1096.5 1465.53 1295.45C1465.53 1494.4 1626.81 1655.68 1825.76 1655.68H2234.74C2433.69 1655.68 2594.97 1494.4 2594.97 1295.45C2594.97 1096.5 2433.69 935.22 2234.74 935.22Z" stroke="#004D9C" stroke-width="2" stroke-miterlimit="10"/>
<path d="M2246.02 915.34H1814.48C1604.55 915.34 1434.37 1085.52 1434.37 1295.45C1434.37 1505.38 1604.55 1675.56 1814.48 1675.56H2246.02C2455.95 1675.56 2626.13 1505.38 2626.13 1295.45C2626.13 1085.52 2455.95 915.34 2246.02 915.34Z" stroke="#004D9C" stroke-width="2" stroke-miterlimit="10"/>
<path d="M2257.3 895.46H1803.2C1582.29 895.46 1403.21 1074.54 1403.21 1295.44C1403.21 1516.35 1582.29 1695.43 1803.2 1695.43H2257.3C2478.21 1695.43 2657.29 1516.35 2657.29 1295.44C2657.29 1074.54 2478.21 895.46 2257.3 895.46Z" stroke="#004D9C" stroke-width="2" stroke-miterlimit="10"/>
<path d="M2268.59 875.59H1791.91C1560.03 875.59 1372.05 1063.57 1372.05 1295.45V1295.46C1372.05 1527.34 1560.03 1715.32 1791.91 1715.32H2268.59C2500.47 1715.32 2688.45 1527.34 2688.45 1295.46V1295.45C2688.45 1063.57 2500.47 875.59 2268.59 875.59Z" stroke="#004D9C" stroke-width="2" stroke-miterlimit="10"/>
<path d="M2279.87 855.71H1780.63C1537.77 855.71 1340.89 1052.59 1340.89 1295.45C1340.89 1538.31 1537.77 1735.19 1780.63 1735.19H2279.87C2522.73 1735.19 2719.61 1538.31 2719.61 1295.45C2719.61 1052.59 2522.73 855.71 2279.87 855.71Z" stroke="#004D9C" stroke-width="2" stroke-miterlimit="10"/>
<path d="M2291.15 835.83H1769.35C1515.51 835.83 1309.73 1041.61 1309.73 1295.44C1309.73 1549.28 1515.51 1755.06 1769.35 1755.06H2291.15C2544.99 1755.06 2750.77 1549.28 2750.77 1295.44C2750.77 1041.61 2544.99 835.83 2291.15 835.83Z" stroke="#004D9C" stroke-width="2" stroke-miterlimit="10"/>
<path d="M2302.44 815.96H1758.06C1493.25 815.96 1278.57 1030.63 1278.57 1295.45V1295.46C1278.57 1560.27 1493.25 1774.95 1758.06 1774.95H2302.44C2567.26 1774.95 2781.93 1560.27 2781.93 1295.46V1295.45C2781.93 1030.63 2567.26 815.96 2302.44 815.96Z" stroke="#004D9C" stroke-width="2" stroke-miterlimit="10"/>
<path d="M2313.72 796.08H1746.78C1470.99 796.08 1247.41 1019.66 1247.41 1295.45C1247.41 1571.24 1470.99 1794.82 1746.78 1794.82H2313.72C2589.51 1794.82 2813.09 1571.24 2813.09 1295.45C2813.09 1019.66 2589.51 796.08 2313.72 796.08Z" stroke="#004D9C" stroke-width="2" stroke-miterlimit="10"/>
<path d="M2325 776.2H1735.5C1448.73 776.2 1216.25 1008.68 1216.25 1295.45C1216.25 1582.22 1448.73 1814.7 1735.5 1814.7H2325C2611.77 1814.7 2844.25 1582.22 2844.25 1295.45C2844.25 1008.68 2611.77 776.2 2325 776.2Z" stroke="#004D9C" stroke-width="2" stroke-miterlimit="10"/>
<path d="M2336.29 756.33H1724.21C1426.46 756.33 1185.09 997.702 1185.09 1295.45V1295.46C1185.09 1593.21 1426.46 1834.58 1724.21 1834.58H2336.29C2634.04 1834.58 2875.41 1593.21 2875.41 1295.46V1295.45C2875.41 997.702 2634.04 756.33 2336.29 756.33Z" stroke="#004D9C" stroke-width="2" stroke-miterlimit="10"/>
<path d="M2347.57 736.45H1712.93C1404.2 736.45 1153.93 986.723 1153.93 1295.45C1153.93 1604.18 1404.2 1854.45 1712.93 1854.45H2347.57C2656.3 1854.45 2906.57 1604.18 2906.57 1295.45C2906.57 986.723 2656.3 736.45 2347.57 736.45Z" stroke="#004D9C" stroke-width="2" stroke-miterlimit="10"/>
<path d="M2358.85 716.57H1701.65C1381.94 716.57 1122.77 975.743 1122.77 1295.45C1122.77 1615.16 1381.94 1874.33 1701.65 1874.33H2358.85C2678.56 1874.33 2937.73 1615.16 2937.73 1295.45C2937.73 975.743 2678.56 716.57 2358.85 716.57Z" stroke="#004D9C" stroke-width="2" stroke-miterlimit="10"/>
<path d="M2370.13 696.69H1690.37C1359.68 696.69 1091.61 964.762 1091.61 1295.44C1091.61 1626.13 1359.68 1894.2 1690.37 1894.2H2370.13C2700.82 1894.2 2968.89 1626.13 2968.89 1295.44C2968.89 964.762 2700.82 696.69 2370.13 696.69Z" stroke="#004D9C" stroke-width="2" stroke-miterlimit="10"/>
<path d="M2381.42 676.82H1679.08C1337.42 676.82 1060.45 953.79 1060.45 1295.45V1295.46C1060.45 1637.12 1337.42 1914.09 1679.08 1914.09H2381.42C2723.08 1914.09 3000.05 1637.12 3000.05 1295.46V1295.45C3000.05 953.79 2723.08 676.82 2381.42 676.82Z" stroke="#004D9C" stroke-width="2" stroke-miterlimit="10"/>
<path d="M2392.7 656.94H1667.8C1315.16 656.94 1029.29 942.811 1029.29 1295.45C1029.29 1648.09 1315.16 1933.96 1667.8 1933.96H2392.7C2745.34 1933.96 3031.21 1648.09 3031.21 1295.45C3031.21 942.811 2745.34 656.94 2392.7 656.94Z" stroke="#004D9C" stroke-width="2" stroke-miterlimit="10"/>
<path d="M2403.98 637.06H1656.52C1292.9 637.06 998.13 931.829 998.13 1295.44C998.13 1659.06 1292.9 1953.83 1656.52 1953.83H2403.98C2767.6 1953.83 3062.37 1659.06 3062.37 1295.44C3062.37 931.829 2767.6 637.06 2403.98 637.06Z" stroke="#004D9C" stroke-width="2" stroke-miterlimit="10"/>
<path d="M2415.27 617.19H1645.23C1270.64 617.19 966.97 920.857 966.97 1295.45V1295.46C966.97 1670.05 1270.64 1973.72 1645.23 1973.72H2415.27C2789.86 1973.72 3093.53 1670.05 3093.53 1295.46V1295.45C3093.53 920.857 2789.86 617.19 2415.27 617.19Z" stroke="#004D9C" stroke-width="2" stroke-miterlimit="10"/>
<path d="M2426.55 597.31H1633.95C1248.38 597.31 935.81 909.878 935.81 1295.45C935.81 1681.02 1248.38 1993.59 1633.95 1993.59H2426.55C2812.12 1993.59 3124.69 1681.02 3124.69 1295.45C3124.69 909.878 2812.12 597.31 2426.55 597.31Z" stroke="#004D9C" stroke-width="2" stroke-miterlimit="10"/>
<path d="M2437.83 577.43H1622.67C1226.12 577.43 904.65 898.898 904.65 1295.45C904.65 1692 1226.12 2013.47 1622.67 2013.47H2437.83C2834.38 2013.47 3155.85 1692 3155.85 1295.45C3155.85 898.898 2834.38 577.43 2437.83 577.43Z" stroke="#004D9C" stroke-width="2" stroke-miterlimit="10"/>
<path d="M2449.13 557.56H1611.38C1203.85 557.56 873.49 887.925 873.49 1295.45V1295.46C873.49 1702.99 1203.85 2033.35 1611.38 2033.35H2449.13C2856.66 2033.35 3187.02 1702.99 3187.02 1295.46V1295.45C3187.02 887.925 2856.66 557.56 2449.13 557.56Z" stroke="#004D9C" stroke-width="2" stroke-miterlimit="10"/>
<path d="M2460.41 537.68H1600.1C1181.6 537.68 842.33 876.945 842.33 1295.45C842.33 1713.95 1181.6 2053.22 1600.1 2053.22H2460.41C2878.91 2053.22 3218.18 1713.95 3218.18 1295.45C3218.18 876.945 2878.91 537.68 2460.41 537.68Z" stroke="#004D9C" stroke-width="2" stroke-miterlimit="10"/>
<path d="M2471.69 517.8H1588.82C1159.34 517.8 811.17 865.966 811.17 1295.45C811.17 1724.93 1159.34 2073.1 1588.82 2073.1H2471.69C2901.17 2073.1 3249.34 1724.93 3249.34 1295.45C3249.34 865.966 2901.17 517.8 2471.69 517.8Z" stroke="#004D9C" stroke-width="2" stroke-miterlimit="10"/>
<path d="M2482.96 497.92H1577.53C1137.07 497.92 780 854.984 780 1295.44C780 1735.91 1137.07 2092.97 1577.53 2092.97H2482.96C2923.42 2092.97 3280.49 1735.91 3280.49 1295.44C3280.49 854.984 2923.42 497.92 2482.96 497.92Z" stroke="#004D9C" stroke-width="2" stroke-miterlimit="10"/>
<path d="M2494.25 478.05H1566.24C1114.8 478.05 748.84 844.012 748.84 1295.45V1295.46C748.84 1746.9 1114.8 2112.86 1566.24 2112.86H2494.25C2945.69 2112.86 3311.65 1746.9 3311.65 1295.46V1295.45C3311.65 844.012 2945.69 478.05 2494.25 478.05Z" stroke="#004D9C" stroke-width="2" stroke-miterlimit="10"/>
<path d="M2505.53 458.17H1554.96C1092.54 458.17 717.68 833.033 717.68 1295.45C717.68 1757.87 1092.54 2132.73 1554.96 2132.73H2505.53C2967.95 2132.73 3342.81 1757.87 3342.81 1295.45C3342.81 833.033 2967.95 458.17 2505.53 458.17Z" stroke="#004D9C" stroke-width="2" stroke-miterlimit="10"/>
<path d="M2516.81 438.29H1543.68C1070.28 438.29 686.52 822.051 686.52 1295.44C686.52 1768.84 1070.28 2152.6 1543.68 2152.6H2516.81C2990.21 2152.6 3373.97 1768.84 3373.97 1295.44C3373.97 822.051 2990.21 438.29 2516.81 438.29Z" stroke="#004D9C" stroke-width="2" stroke-miterlimit="10"/>
<path d="M2528.1 418.42H1532.39C1048.02 418.42 655.36 811.08 655.36 1295.45V1295.46C655.36 1779.83 1048.02 2172.49 1532.39 2172.49H2528.1C3012.47 2172.49 3405.13 1779.83 3405.13 1295.46V1295.45C3405.13 811.08 3012.47 418.42 2528.1 418.42Z" stroke="#004D9C" stroke-width="2" stroke-miterlimit="10"/>
<path d="M2539.38 398.54H1521.11C1025.76 398.54 624.2 800.1 624.2 1295.45C624.2 1790.8 1025.76 2192.36 1521.11 2192.36H2539.38C3034.73 2192.36 3436.29 1790.8 3436.29 1295.45C3436.29 800.1 3034.73 398.54 2539.38 398.54Z" stroke="#004D9C" stroke-width="2" stroke-miterlimit="10"/>
<path d="M2550.66 378.66H1509.83C1003.5 378.66 593.04 789.121 593.04 1295.45C593.04 1801.78 1003.5 2212.24 1509.83 2212.24H2550.66C3056.99 2212.24 3467.45 1801.78 3467.45 1295.45C3467.45 789.121 3056.99 378.66 2550.66 378.66Z" stroke="#004D9C" stroke-width="2" stroke-miterlimit="10"/>
<path d="M2561.95 358.79H1498.54C981.237 358.79 561.88 778.147 561.88 1295.45V1295.46C561.88 1812.76 981.237 2232.12 1498.54 2232.12H2561.95C3079.25 2232.12 3498.61 1812.76 3498.61 1295.46V1295.45C3498.61 778.147 3079.25 358.79 2561.95 358.79Z" stroke="#004D9C" stroke-width="2" stroke-miterlimit="10"/>
<path d="M2573.23 338.91H1487.26C958.977 338.91 530.72 767.167 530.72 1295.45C530.72 1823.73 958.977 2251.99 1487.26 2251.99H2573.23C3101.51 2251.99 3529.77 1823.73 3529.77 1295.45C3529.77 767.167 3101.51 338.91 2573.23 338.91Z" stroke="#004D9C" stroke-width="2" stroke-miterlimit="10"/>
<path d="M2584.51 319.03H1475.98C936.718 319.03 499.56 756.188 499.56 1295.45C499.56 1834.71 936.718 2271.87 1475.98 2271.87H2584.51C3123.77 2271.87 3560.93 1834.71 3560.93 1295.45C3560.93 756.188 3123.77 319.03 2584.51 319.03Z" stroke="#004D9C" stroke-width="2" stroke-miterlimit="10"/>
<path d="M2595.8 299.15H1464.69C914.455 299.15 468.4 745.204 468.4 1295.44V1295.45C468.4 1845.69 914.455 2291.74 1464.69 2291.74H2595.8C3146.04 2291.74 3592.09 1845.69 3592.09 1295.45V1295.44C3592.09 745.204 3146.04 299.15 2595.8 299.15Z" stroke="#004D9C" stroke-width="2" stroke-miterlimit="10"/>
<path d="M2607.08 279.28H1453.41C892.195 279.28 437.24 734.235 437.24 1295.45V1295.46C437.24 1856.68 892.195 2311.63 1453.41 2311.63H2607.08C3168.3 2311.63 3623.25 1856.68 3623.25 1295.46V1295.45C3623.25 734.235 3168.3 279.28 2607.08 279.28Z" stroke="#004D9C" stroke-width="2" stroke-miterlimit="10"/>
<path d="M2618.36 259.4H1442.13C869.935 259.4 406.08 723.255 406.08 1295.45C406.08 1867.64 869.935 2331.5 1442.13 2331.5H2618.36C3190.55 2331.5 3654.41 1867.64 3654.41 1295.45C3654.41 723.255 3190.55 259.4 2618.36 259.4Z" stroke="#004D9C" stroke-width="2" stroke-miterlimit="10"/>
<path d="M2629.64 239.52H1430.85C847.676 239.52 374.92 712.274 374.92 1295.44C374.92 1878.62 847.676 2351.37 1430.85 2351.37H2629.64C3212.81 2351.37 3685.57 1878.62 3685.57 1295.44C3685.57 712.274 3212.81 239.52 2629.64 239.52Z" stroke="#004D9C" stroke-width="2" stroke-miterlimit="10"/>
<path d="M2640.93 219.65H1419.56C825.412 219.65 343.76 701.302 343.76 1295.45V1295.46C343.76 1889.61 825.412 2371.26 1419.56 2371.26H2640.93C3235.08 2371.26 3716.73 1889.61 3716.73 1295.46V1295.45C3716.73 701.302 3235.08 219.65 2640.93 219.65Z" stroke="#004D9C" stroke-width="2" stroke-miterlimit="10"/>
<path d="M2652.21 199.77H1408.28C803.152 199.77 312.6 690.323 312.6 1295.45C312.6 1900.58 803.152 2391.13 1408.28 2391.13H2652.21C3257.34 2391.13 3747.89 1900.58 3747.89 1295.45C3747.89 690.323 3257.34 199.77 2652.21 199.77Z" stroke="#004D9C" stroke-width="2" stroke-miterlimit="10"/>
<path d="M2663.49 179.89H1397C780.894 179.89 281.44 679.343 281.44 1295.45C281.44 1911.56 780.894 2411.01 1397 2411.01H2663.49C3279.6 2411.01 3779.05 1911.56 3779.05 1295.45C3779.05 679.343 3279.6 179.89 2663.49 179.89Z" stroke="#004D9C" stroke-width="2" stroke-miterlimit="10"/>
<path d="M2674.78 160.02H1385.71C758.63 160.02 250.28 668.369 250.28 1295.45V1295.46C250.28 1922.54 758.63 2430.89 1385.71 2430.89H2674.78C3301.86 2430.89 3810.21 1922.54 3810.21 1295.46V1295.45C3810.21 668.369 3301.86 160.02 2674.78 160.02Z" stroke="#004D9C" stroke-width="2" stroke-miterlimit="10"/>
<path d="M2686.06 140.14H1374.43C736.37 140.14 219.12 657.39 219.12 1295.45C219.12 1933.51 736.37 2450.76 1374.43 2450.76H2686.06C3324.12 2450.76 3841.37 1933.51 3841.37 1295.45C3841.37 657.39 3324.12 140.14 2686.06 140.14Z" stroke="#004D9C" stroke-width="2" stroke-miterlimit="10"/>
<path d="M2697.34 120.26H1363.15C714.111 120.26 187.96 646.41 187.96 1295.45C187.96 1944.49 714.111 2470.64 1363.15 2470.64H2697.34C3346.38 2470.64 3872.53 1944.49 3872.53 1295.45C3872.53 646.41 3346.38 120.26 2697.34 120.26Z" stroke="#004D9C" stroke-width="2" stroke-miterlimit="10"/>
<path d="M2708.63 100.38H1351.86C691.846 100.38 156.8 635.427 156.8 1295.44V1295.45C156.8 1955.46 691.846 2490.51 1351.86 2490.51H2708.63C3368.64 2490.51 3903.69 1955.46 3903.69 1295.45V1295.44C3903.69 635.427 3368.64 100.38 2708.63 100.38Z" stroke="#004D9C" stroke-width="2" stroke-miterlimit="10"/>
<path d="M2719.91 80.51H1340.58C669.587 80.51 125.64 624.457 125.64 1295.45V1295.46C125.64 1966.45 669.587 2510.4 1340.58 2510.4H2719.91C3390.9 2510.4 3934.85 1966.45 3934.85 1295.46V1295.45C3934.85 624.457 3390.9 80.51 2719.91 80.51Z" stroke="#004D9C" stroke-width="2" stroke-miterlimit="10"/>
<path d="M2731.19 60.63H1329.3C647.328 60.63 94.4805 613.478 94.4805 1295.45C94.4805 1977.42 647.328 2530.27 1329.3 2530.27H2731.19C3413.16 2530.27 3966.01 1977.42 3966.01 1295.45C3966.01 613.478 3413.16 60.63 2731.19 60.63Z" stroke="#004D9C" stroke-width="2" stroke-miterlimit="10"/>
<path d="M2742.48 40.75H1318.02C625.069 40.75 63.3203 602.496 63.3203 1295.44C63.3203 1988.39 625.069 2550.14 1318.02 2550.14H2742.48C3435.43 2550.14 3997.18 1988.39 3997.18 1295.44C3997.18 602.496 3435.43 40.75 2742.48 40.75Z" stroke="#004D9C" stroke-width="2" stroke-miterlimit="10"/>
<path d="M2753.77 20.88H1306.73C602.805 20.88 32.1602 591.524 32.1602 1295.45V1295.46C32.1602 1999.39 602.805 2570.03 1306.73 2570.03H2753.77C3457.7 2570.03 4028.34 1999.39 4028.34 1295.46V1295.45C4028.34 591.524 3457.7 20.88 2753.77 20.88Z" stroke="#004D9C" stroke-width="2" stroke-miterlimit="10"/>
<path d="M2765.05 1H1295.45C580.545 1 1 580.545 1 1295.45C1 2010.35 580.545 2589.9 1295.45 2589.9H2765.05C3479.96 2589.9 4059.5 2010.35 4059.5 1295.45C4059.5 580.545 3479.96 1 2765.05 1Z" stroke="#004D9C" stroke-width="2" stroke-miterlimit="10"/>
</svg>
