<svg width="1440" height="418" viewBox="0 0 1440 418" fill="none" xmlns="http://www.w3.org/2000/svg">
<g opacity="0.4">
<mask id="mask0_49_1047" style="mask-type:alpha" maskUnits="userSpaceOnUse" x="0" y="0" width="1440" height="418">
<rect width="1440" height="418" fill="#004BFF"/>
</mask>
<g mask="url(#mask0_49_1047)">
<path fill-rule="evenodd" clip-rule="evenodd" d="M505.456 87.6241C409.429 155.002 311.51 222.5 139.105 222.5C1.20673 222.5 -116.376 177.524 -207.316 121.332C-298.252 65.1415 -362.586 -2.28656 -394 -47.2581L-392.894 -47.7419C-361.556 -2.88011 -297.332 64.4418 -206.539 120.543C-115.75 176.643 1.56693 221.5 139.105 221.5C310.995 221.5 408.598 154.248 504.618 86.8759L507.621 84.7685C602.61 18.1064 696.808 -48 860.546 -48C992.881 -48 1118.88 -3.02621 1222.59 53.1499C1326.3 109.328 1407.78 176.741 1451.09 221.697L1450.08 222.303C1406.85 177.426 1325.46 110.089 1221.87 53.9751C1118.28 -2.14046 992.528 -47 860.546 -47C697.289 -47 603.411 18.8818 508.387 85.5677L505.456 87.6241Z" fill="url(#paint0_linear_49_1047)"/>
<path fill-rule="evenodd" clip-rule="evenodd" d="M531.357 112.124C435.33 179.502 337.411 247 165.006 247C27.1078 247 -90.4752 202.024 -181.415 145.832C-272.351 89.6415 -336.684 22.2134 -368.099 -22.7581L-366.993 -23.2419C-335.655 21.6199 -271.431 88.9418 -180.638 145.043C-89.8488 201.143 27.468 246 165.006 246C336.896 246 434.499 178.748 530.519 111.376L533.522 109.268C628.512 42.6064 722.709 -23.5 886.447 -23.5C1018.78 -23.5 1144.78 21.4738 1248.49 77.6499C1352.2 133.828 1433.68 201.241 1476.99 246.197L1475.98 246.803C1432.75 201.926 1351.37 134.589 1247.77 78.4751C1144.18 22.3595 1018.43 -22.5 886.447 -22.5C723.191 -22.5 629.312 43.3818 534.288 110.068L531.357 112.124Z" fill="url(#paint1_linear_49_1047)"/>
<path fill-rule="evenodd" clip-rule="evenodd" d="M557.258 136.624C461.231 204.002 363.312 271.5 190.907 271.5C53.0089 271.5 -64.5741 226.524 -155.514 170.332C-246.45 114.142 -310.783 46.7134 -342.198 1.74192L-341.092 1.25808C-309.754 46.1199 -245.529 113.442 -154.737 169.543C-63.9477 225.643 53.3691 270.5 190.907 270.5C362.797 270.5 460.4 203.248 556.42 135.876L559.423 133.768C654.413 67.1064 748.61 1 912.348 1C1044.68 1 1170.68 45.9738 1274.39 102.15C1378.1 158.328 1459.58 225.741 1502.89 270.697L1501.89 271.303C1458.65 226.426 1377.27 159.089 1273.67 102.975C1170.08 46.8596 1044.33 2 912.348 2C749.092 2 655.213 67.8818 560.189 134.568L557.258 136.624Z" fill="url(#paint2_linear_49_1047)"/>
<path fill-rule="evenodd" clip-rule="evenodd" d="M583.159 161.124C487.132 228.502 389.213 296 216.808 296C78.9101 296 -38.673 251.024 -129.613 194.832C-220.549 138.642 -284.882 71.2134 -316.297 26.2419L-315.191 25.7581C-283.853 70.6199 -219.628 137.942 -128.835 194.043C-38.0466 250.143 79.2703 295 216.808 295C388.699 295 486.301 227.748 582.321 160.376L585.324 158.268C680.314 91.6064 774.511 25.5 938.249 25.5C1070.58 25.5 1196.58 70.4738 1300.29 126.65C1404 182.828 1485.48 250.241 1528.79 295.197L1527.79 295.803C1484.55 250.926 1403.17 183.589 1299.58 127.475C1195.98 71.3596 1070.23 26.5 938.249 26.5C774.993 26.5 681.114 92.3818 586.09 159.068L583.159 161.124Z" fill="url(#paint3_linear_49_1047)"/>
<path fill-rule="evenodd" clip-rule="evenodd" d="M609.061 185.624C513.034 253.002 415.114 320.5 242.709 320.5C104.811 320.5 -12.7719 275.524 -103.712 219.332C-194.648 163.142 -258.981 95.7134 -290.396 50.7419L-289.29 50.2581C-257.952 95.1199 -193.727 162.442 -102.934 218.543C-12.1455 274.643 105.171 319.5 242.709 319.5C414.6 319.5 512.202 252.248 608.222 184.876L611.225 182.768C706.215 116.106 800.412 50 964.15 50C1096.48 50 1222.48 94.9738 1326.19 151.15C1429.9 207.328 1511.38 274.741 1554.69 319.697L1553.69 320.303C1510.45 275.426 1429.07 208.089 1325.48 151.975C1221.88 95.8596 1096.13 51 964.15 51C800.894 51 707.015 116.882 611.991 183.568L609.061 185.624Z" fill="url(#paint4_linear_49_1047)"/>
<path fill-rule="evenodd" clip-rule="evenodd" d="M634.962 210.124C538.935 277.502 441.015 345 268.61 345C130.712 345 13.1292 300.024 -77.8108 243.832C-168.747 187.642 -233.08 120.213 -264.494 75.2419L-263.389 74.7581C-232.051 119.62 -167.826 186.942 -77.0333 243.043C13.7556 299.143 131.072 344 268.61 344C440.501 344 538.103 276.748 634.124 209.376L637.127 207.268C732.116 140.606 826.313 74.5 990.051 74.5C1122.39 74.5 1248.38 119.474 1352.09 175.65C1455.8 231.828 1537.28 299.241 1580.59 344.197L1579.59 344.803C1536.35 299.926 1454.97 232.589 1351.38 176.475C1247.78 120.36 1122.03 75.5 990.051 75.5C826.795 75.5 732.917 141.382 637.892 208.068L634.962 210.124Z" fill="url(#paint5_linear_49_1047)"/>
<path fill-rule="evenodd" clip-rule="evenodd" d="M660.863 234.624C564.836 302.002 466.917 369.5 294.512 369.5C156.613 369.5 39.0304 324.524 -51.9097 268.332C-142.846 212.142 -207.179 144.713 -238.593 99.7419L-237.488 99.2581C-206.15 144.12 -141.925 211.442 -51.1321 267.543C39.6567 323.643 156.974 368.5 294.512 368.5C466.402 368.5 564.004 301.248 660.025 233.876L663.028 231.768C758.017 165.106 852.215 99 1015.95 99C1148.29 99 1274.29 143.974 1377.99 200.15C1481.7 256.328 1563.18 323.741 1606.49 368.697L1605.49 369.303C1562.25 324.426 1480.87 257.089 1377.28 200.975C1273.68 144.86 1147.93 100 1015.95 100C852.696 100 758.818 165.882 663.793 232.568L660.863 234.624Z" fill="url(#paint6_linear_49_1047)"/>
<path fill-rule="evenodd" clip-rule="evenodd" d="M686.764 259.124C590.737 326.502 492.818 394 320.413 394C182.514 394 64.9315 349.024 -26.0085 292.832C-116.945 236.642 -181.278 169.213 -212.692 124.242L-211.587 123.758C-180.249 168.62 -116.024 235.942 -25.231 292.043C65.5579 348.143 182.875 393 320.413 393C492.303 393 589.906 325.748 685.926 258.376L688.929 256.268C783.918 189.606 878.116 123.5 1041.85 123.5C1174.19 123.5 1300.19 168.474 1403.89 224.65C1507.61 280.828 1589.08 348.241 1632.4 393.197L1631.39 393.803C1588.15 348.926 1506.77 281.589 1403.18 225.475C1299.58 169.36 1173.84 124.5 1041.85 124.5C878.597 124.5 784.719 190.382 689.694 257.068L686.764 259.124Z" fill="url(#paint7_linear_49_1047)"/>
<path fill-rule="evenodd" clip-rule="evenodd" d="M712.665 283.624C616.638 351.002 518.719 418.5 346.314 418.5C208.416 418.5 90.8326 373.524 -0.107452 317.332C-91.0435 261.142 -155.377 193.713 -186.791 148.742L-185.685 148.258C-154.348 193.12 -90.1228 260.442 0.670074 316.543C91.459 372.643 208.776 417.5 346.314 417.5C518.204 417.5 615.807 350.248 711.827 282.876L714.83 280.768C809.819 214.106 904.017 148 1067.75 148C1200.09 148 1326.09 192.974 1429.8 249.15C1533.51 305.328 1614.99 372.741 1658.3 417.697L1657.29 418.303C1614.06 373.426 1532.67 306.089 1429.08 249.975C1325.49 193.86 1199.74 149 1067.75 149C904.498 149 810.62 214.882 715.595 281.568L712.665 283.624Z" fill="url(#paint8_linear_49_1047)"/>
<path fill-rule="evenodd" clip-rule="evenodd" d="M738.566 308.124C642.539 375.502 544.62 443 372.215 443C234.317 443 116.734 398.024 25.7937 341.832C-65.1424 285.642 -129.476 218.213 -160.89 173.242L-159.784 172.758C-128.446 217.62 -64.2216 284.942 26.5712 341.043C117.36 397.143 234.677 442 372.215 442C544.105 442 641.708 374.748 737.728 307.376L740.731 305.268C835.72 238.606 929.918 172.5 1093.66 172.5C1225.99 172.5 1351.99 217.474 1455.7 273.65C1559.41 329.828 1640.89 397.241 1684.2 442.197L1683.19 442.803C1639.96 397.926 1558.57 330.589 1454.98 274.475C1351.39 218.36 1225.64 173.5 1093.66 173.5C930.399 173.5 836.521 239.382 741.497 306.068L738.566 308.124Z" fill="url(#paint9_linear_49_1047)"/>
<path fill-rule="evenodd" clip-rule="evenodd" d="M764.467 332.624C668.44 400.002 570.521 467.5 398.116 467.5C260.218 467.5 142.635 422.524 51.6948 366.332C-39.2413 310.142 -103.574 242.713 -134.989 197.742L-133.883 197.258C-102.545 242.12 -38.3206 309.442 52.4723 365.543C143.261 421.643 260.578 466.5 398.116 466.5C570.006 466.5 667.609 399.248 763.629 331.876L766.632 329.768C861.621 263.106 955.819 197 1119.56 197C1251.89 197 1377.89 241.974 1481.6 298.15C1585.31 354.328 1666.79 421.741 1710.1 466.697L1709.09 467.303C1665.86 422.426 1584.48 355.089 1480.88 298.975C1377.29 242.86 1251.54 198 1119.56 198C956.3 198 862.422 263.882 767.398 330.568L764.467 332.624Z" fill="url(#paint10_linear_49_1047)"/>
<path fill-rule="evenodd" clip-rule="evenodd" d="M790.368 357.124C694.341 424.502 596.422 492 424.017 492C286.119 492 168.536 447.024 77.5959 390.832C-13.3402 334.642 -77.6733 267.213 -109.088 222.242L-107.982 221.758C-76.6443 266.62 -12.4194 333.942 78.3734 390.043C169.162 446.143 286.479 491 424.017 491C595.907 491 693.51 423.748 789.53 356.376L792.533 354.268C887.523 287.606 981.72 221.5 1145.46 221.5C1277.79 221.5 1403.79 266.474 1507.5 322.65C1611.21 378.828 1692.69 446.241 1736 491.197L1735 491.803C1691.76 446.926 1610.38 379.589 1506.78 323.475C1403.19 267.36 1277.44 222.5 1145.46 222.5C982.202 222.5 888.323 288.382 793.299 355.068L790.368 357.124Z" fill="url(#paint11_linear_49_1047)"/>
</g>
</g>
<defs>
<linearGradient id="paint0_linear_49_1047" x1="671" y1="-48" x2="671" y2="492" gradientUnits="userSpaceOnUse">
<stop stop-color="#0293E8"/>
<stop offset="0.713542" stop-color="#0293E8" stop-opacity="0"/>
</linearGradient>
<linearGradient id="paint1_linear_49_1047" x1="671" y1="-48" x2="671" y2="492" gradientUnits="userSpaceOnUse">
<stop stop-color="#0293E8"/>
<stop offset="0.713542" stop-color="#0293E8" stop-opacity="0"/>
</linearGradient>
<linearGradient id="paint2_linear_49_1047" x1="671" y1="-48" x2="671" y2="492" gradientUnits="userSpaceOnUse">
<stop stop-color="#0293E8"/>
<stop offset="0.713542" stop-color="#0293E8" stop-opacity="0"/>
</linearGradient>
<linearGradient id="paint3_linear_49_1047" x1="671" y1="-48" x2="671" y2="492" gradientUnits="userSpaceOnUse">
<stop stop-color="#0293E8"/>
<stop offset="0.713542" stop-color="#0293E8" stop-opacity="0"/>
</linearGradient>
<linearGradient id="paint4_linear_49_1047" x1="671" y1="-48" x2="671" y2="492" gradientUnits="userSpaceOnUse">
<stop stop-color="#0293E8"/>
<stop offset="0.713542" stop-color="#0293E8" stop-opacity="0"/>
</linearGradient>
<linearGradient id="paint5_linear_49_1047" x1="671" y1="-48" x2="671" y2="492" gradientUnits="userSpaceOnUse">
<stop stop-color="#0293E8"/>
<stop offset="0.713542" stop-color="#0293E8" stop-opacity="0"/>
</linearGradient>
<linearGradient id="paint6_linear_49_1047" x1="671" y1="-48" x2="671" y2="492" gradientUnits="userSpaceOnUse">
<stop stop-color="#0293E8"/>
<stop offset="0.713542" stop-color="#0293E8" stop-opacity="0"/>
</linearGradient>
<linearGradient id="paint7_linear_49_1047" x1="671" y1="-48" x2="671" y2="492" gradientUnits="userSpaceOnUse">
<stop stop-color="#0293E8"/>
<stop offset="0.713542" stop-color="#0293E8" stop-opacity="0"/>
</linearGradient>
<linearGradient id="paint8_linear_49_1047" x1="671" y1="-48" x2="671" y2="492" gradientUnits="userSpaceOnUse">
<stop stop-color="#0293E8"/>
<stop offset="0.713542" stop-color="#0293E8" stop-opacity="0"/>
</linearGradient>
<linearGradient id="paint9_linear_49_1047" x1="671" y1="-48" x2="671" y2="492" gradientUnits="userSpaceOnUse">
<stop stop-color="#0293E8"/>
<stop offset="0.713542" stop-color="#0293E8" stop-opacity="0"/>
</linearGradient>
<linearGradient id="paint10_linear_49_1047" x1="671" y1="-48" x2="671" y2="492" gradientUnits="userSpaceOnUse">
<stop stop-color="#0293E8"/>
<stop offset="0.713542" stop-color="#0293E8" stop-opacity="0"/>
</linearGradient>
<linearGradient id="paint11_linear_49_1047" x1="671" y1="-48" x2="671" y2="492" gradientUnits="userSpaceOnUse">
<stop stop-color="#0293E8"/>
<stop offset="0.713542" stop-color="#0293E8" stop-opacity="0"/>
</linearGradient>
</defs>
</svg>
